<svg xmlns="http://www.w3.org/2000/svg" xmlns:xlink="http://www.w3.org/1999/xlink" viewBox="0 0 2027.4 1184.23"><defs><style>.cls-1,.cls-4,.cls-7,.cls-9{fill:none;}.cls-2{clip-path:url(#clip-path);}.cls-3{fill:url(#linear-gradient);}.cls-4{stroke:#fff;stroke-width:2px;opacity:0.3;}.cls-4,.cls-7,.cls-9{stroke-miterlimit:10;}.cls-5{fill:#0b033a;}.cls-6{fill:#c2c3c9;}.cls-7{stroke:#c2c3c9;}.cls-8{fill:#009bdb;}.cls-9{stroke:#009bdb;}</style><clipPath id="clip-path"><rect class="cls-1" x="53.7" y="0.39" width="1920" height="1081.06"/></clipPath><linearGradient id="linear-gradient" x1="1013.7" y1="1205.46" x2="1013.7" y2="279.67" gradientUnits="userSpaceOnUse"><stop offset="0" stop-color="#0b033a"/><stop offset="1" stop-color="#000014"/></linearGradient></defs><title>Recurso 1</title><g id="Capa_2" data-name="Capa 2"><g id="Capa_1-2" data-name="Capa 1"><g class="cls-2"><rect class="cls-3" x="53.38" width="1920.65" height="1095.84"/><path class="cls-4" d="M540.63,350.62c5.35,3.8,10.75,7.79,16.55,10.41,8.34,3.77,17.52,5.27,25.49,9.78,10.2,5.78,19.56,13.59,29.28,20.54,3.82,2.73,7.33,4.49,12,1.38,22.14-14.68,45.3-26.16,71-28.77a4.44,4.44,0,0,0,2.59-.86c13.51-12.89,31-14.75,46.36-22.56,11.63-5.91,25.07-6.95,37.73-10a5.78,5.78,0,0,1,4.61.75c4.4,3.54,8.18,1.26,12.22-.88a71.38,71.38,0,0,1,10.19-4.34c5-1.72,10.12-2.74,15-4.73,11.94-4.86,23.63-10.61,35.68-15,6.36-2.31,13.38-2,19.9-3.83a148.1,148.1,0,0,0,20-7.76c5.07-2.28,9.87-5.39,14.83-8s10.14-5.44,15.32-7.83c3.13-1.44,6.61-1.87,9.7-3.39,19-9.35,37.82-19.49,57.07-28.19,19.8-8.94,40.45-9.63,61.31-5.48,4.63.92,9.56,1.57,14.12.68a94.72,94.72,0,0,0,21.1-6.53,72.51,72.51,0,0,1,51-3.94c6.16,1.7,12.59,2,18.9,3,10.55,1.65,21.12,3.12,31.62,5,22.92,4.22,45.75,9.12,68.73,12.85,10.44,1.69,21.14,1.45,31.72,1.69a33.81,33.81,0,0,0,11.65-1.64c9.58-3.3,18.86-7.93,28.55-10.65,11.27-3.17,23-4.29,31.94-14.5,1-1.19,2.91-1.37,4.39-2.06,18.55-8.57,37.17-17,55.62-25.83,6.06-2.92,11.51-7.58,17.55-10.6,15.86-7.92,32.33-14.36,47.72-23.35,11.75-6.86,23-9.13,35.6-5.43a83.35,83.35,0,0,0,20.83,3.38c17.27.51,34.69-1.23,51.8.79a116.42,116.42,0,0,0,38.71-1.46c4.08-.87,8.86,1.26,13.05,2.93,7.25,2.88,14.12,7.15,21.44,9.64,21.57,7.32,44.37,9.34,65,21,24.78,14,49.7,27.68,74.4,41.88,14.07,8.09,27.59,17.54,41.82,25.19,6.69,3.59,14.45,4.46,21.76,6.44,8.41,2.28,16.78,4.84,25.27,6.54,16.44,3.28,32.37,7.34,46.69,18.67,8.6,6.8,18,14.35,29.69,10.27a191.94,191.94,0,0,0,18.51-7.87c9.55-4.52,19.07-8.92,29.67-7.93v893.19H1Q1,814.69,1,446.15c30-5,59.94-10.29,90-15,6.52-1,13.28-.06,19.93.26,5.81.27,12,2.71,17.34,1,12.59-3.94,24.75-9.78,37.09-14.8,7.08-2.88,14.09-6,21.28-8.44,19.44-6.46,39-12.65,58.47-18.82,18.68-5.91,37.36-11.82,56.1-17.45,17.38-5.23,34.57-10.84,48-22.88,10.52.73,20.22,1.78,29.92,1.94,7.72.12,15.59-2.18,23.14-1.08,17.38,2.53,34.53.54,51.75-1.28,8.12-.86,16.28-1.15,24.39-2.05,4.94-.55,9.82-2,14.76-2.64s9.87-2.08,14.45-1c11.33,2.61,17,6.21,17-7.83V310.9s.75-8.86,8.49-9.57c0,0,7.76-.57,8.2,9.62Z"/><path class="cls-5" d="M829.72,452.79V240.72h49.77v81.44H914V240.72h49.77V452.79H914V364.57h-34.5v88.22Z"/><path class="cls-5" d="M988.35,452.79V240.72h114v42.41h-64.19v39h62.21v42.41h-62.21v45.81h67.58v42.41Z"/><path class="cls-5" d="M1195,310h.57l25.45-69.28h49.77l-51.18,123v89.07h-49.77V363.72l-50-123h50.33Z"/><circle class="cls-6" cx="829.75" cy="241.1" r="3.17"/><polygon class="cls-7" points="829.75 246.65 829.75 452.79 879.56 452.79 879.56 364.12 914.12 364.12 914.12 452.79 964.03 452.79 964.03 241.1 914.12 241.1 914.12 322.14 879.46 322.14 879.46 241.1 829.75 241.1 829.75 246.65"/><circle class="cls-6" cx="879.46" cy="241.1" r="3.17"/><circle class="cls-6" cx="879.46" cy="322.14" r="3.17"/><circle class="cls-6" cx="914.12" cy="322.14" r="3.17"/><circle class="cls-6" cx="914.12" cy="241.1" r="3.17"/><circle class="cls-8" cx="963.83" cy="241.1" r="3.17"/><circle class="cls-6" cx="829.85" cy="452.79" r="3.17"/><circle class="cls-6" cx="879.56" cy="452.79" r="3.17"/><circle class="cls-6" cx="914.22" cy="452.79" r="3.17"/><circle class="cls-8" cx="963.93" cy="452.79" r="3.17"/><circle class="cls-6" cx="879.46" cy="364.62" r="3.17"/><circle class="cls-6" cx="914.12" cy="364.62" r="3.17"/><polyline class="cls-7" points="921.85 260.04 921.85 249.05 956.31 249.05 956.31 343.82 896.89 343.82"/><circle class="cls-6" cx="921.85" cy="260.04" r="3.17"/><circle class="cls-7" cx="893.72" cy="343.82" r="3.17"/><polyline class="cls-7" points="871.34 299.56 871.34 249.05 838.07 249.05 838.07 442.46 856.49 442.46"/><circle class="cls-7" cx="859.23" cy="442.46" r="3.17"/><circle class="cls-6" cx="854.7" cy="249.05" r="3.17"/><circle class="cls-8" cx="879.46" cy="282.03" r="3.17"/><circle class="cls-7" cx="871.34" cy="302.28" r="3.17"/><circle class="cls-6" cx="956.31" cy="343.82" r="3.17"/><polyline class="cls-7" points="939.08 354.22 939.08 402.15 934.32 402.15 934.32 372.44 926.6 372.44 926.6 410.07 939.08 410.07 939.08 422.75 926.6 423.15 926.6 433.84 947.4 433.45 947.4 354.22 956.31 354.22 956.31 442.46 921.85 442.46 921.85 354.22 868.3 354.22 868.17 429.48 846.39 429.48 846.39 260.04 856.05 260.04 856.05 411.66"/><circle class="cls-7" cx="856.05" cy="414.43" r="3.17"/><circle class="cls-6" cx="939.48" cy="351.25" r="3.17"/><circle class="cls-6" cx="956.31" cy="381.55" r="3.17"/><circle class="cls-6" cx="956.31" cy="414.43" r="3.17"/><circle class="cls-6" cx="846.39" cy="308.63" r="3.17"/><circle class="cls-6" cx="856.05" cy="332.43" r="3.17"/><polyline class="cls-9" points="856.05 332.44 945.81 332.44 945.81 260.04 930.76 260.04 930.76 308.63"/><circle class="cls-7" cx="931.15" cy="311.8" r="3.17"/><polyline class="cls-7" points="1100.26 340.65 1100.1 322.14 1038.31 322.14 1038.31 282.03 1102.48 282.03 1102.48 241.1 988.39 241.1 988.39 452.79 1105.98 452.79"/><path class="cls-7" d="M1100.1,338.38"/><polyline class="cls-7" points="1105.98 411.26 1038.31 411.26 1038.31 364.62 1100.1 364.62 1100.26 347"/><circle class="cls-8" cx="988.39" cy="241.1" r="3.17"/><circle class="cls-6" cx="1100.82" cy="241.1" r="3.17"/><circle class="cls-8" cx="989.82" cy="452.79" r="3.17"/><circle class="cls-8" cx="1103.43" cy="452.79" r="3.17"/><circle class="cls-6" cx="1038.31" cy="411.26" r="3.17"/><circle class="cls-6" cx="1103.43" cy="411.26" r="3.17"/><circle class="cls-6" cx="1097.65" cy="364.62" r="3.17"/><circle class="cls-6" cx="1038.31" cy="364.62" r="3.17"/><circle class="cls-6" cx="1038.31" cy="322.14" r="3.17"/><circle class="cls-6" cx="1100.1" cy="322.14" r="3.17"/><circle class="cls-6" cx="1038.31" cy="282.03" r="3.17"/><circle class="cls-6" cx="1100.82" cy="282.03" r="3.17"/><circle class="cls-7" cx="1100.26" cy="343.82" r="3.17"/><polyline class="cls-7" points="1051.38 263.22 1086.89 263.22 1086.89 249.05 1002.65 249.05 1002.65 442.46 1091.78 442.46 1091.78 424.33 1026.5 423.74 1026.5 354.42 1083.46 354.42 1084.06 332.44 1069.2 332.44 1069.2 343.82 1057.32 343.82 1057.32 332.44 1023.45 332.44 1023.45 305.46"/><circle class="cls-7" cx="1023.33" cy="302.66" r="3.17"/><circle class="cls-6" cx="1050.36" cy="263.22" r="3.17"/><circle class="cls-6" cx="1002.66" cy="343.82" r="3.17"/><polyline class="cls-7" points="1023.33 288.47 1023.33 260.04 1012.36 260.04 1012.36 433.84 1072.14 433.84"/><circle class="cls-7" cx="1023.33" cy="290.86" r="3.17"/><circle class="cls-6" cx="1023.45" cy="332.43" r="3.17"/><circle class="cls-6" cx="1012.36" cy="411.26" r="3.17"/><circle class="cls-7" cx="1074.52" cy="433.84" r="3.17"/><circle class="cls-6" cx="1002.66" cy="442.46" r="3.17"/><circle class="cls-6" cx="1063.45" cy="343.82" r="3.17"/><line class="cls-9" x1="1012.36" y1="343.82" x2="1041.48" y2="343.82"/><circle class="cls-7" cx="1044.72" cy="343.82" r="3.17"/><circle class="cls-6" cx="1002.66" cy="287.69" r="3.17"/><circle class="cls-6" cx="1066.63" cy="249.05" r="3.17"/><circle class="cls-6" cx="1066.63" cy="282.03" r="3.17"/><polygon class="cls-7" points="1169.62 241.1 1119.31 241.1 1169.62 364.62 1169.62 452.79 1219.53 452.79 1219.53 364.62 1270.63 241.1 1220.32 241.1 1194.97 310.65 1169.62 241.1"/><polygon class="cls-7" points="1160.11 249.05 1133.18 249.05 1181.5 364.62 1181.5 412.85 1198.93 412.85 1198.93 419.58 1180.71 419.58 1180.71 442.46 1212.8 442.46 1212.8 364.62 1260.73 249.05 1250.82 249.05 1225.87 311.84 1215.57 311.84 1240.53 249.05 1226.27 249.05 1194.97 332.44 1160.11 249.05"/><polyline class="cls-7" points="1231.02 256.78 1194.97 347 1154.96 256.78 1143.08 256.78 1158.92 294.04"/><polyline class="cls-7" points="1165.66 309.86 1189.43 364.62 1189.43 403.74 1204.48 403.74 1204.48 427.5 1185.07 427.5 1185.07 437.01 1192.2 437.01"/><polyline class="cls-9" points="1199.33 390.27 1199.33 364.62 1215.97 325.31"/><circle class="cls-7" cx="1194.97" cy="435.03" r="3.17"/><circle class="cls-6" cx="1231.02" cy="256.78" r="3.17"/><circle class="cls-6" cx="1194.97" cy="347" r="3.17"/><circle class="cls-6" cx="1194.97" cy="332.43" r="3.17"/><circle class="cls-6" cx="1119.31" cy="241.1" r="3.17"/><circle class="cls-6" cx="1169.62" cy="241.1" r="3.17"/><circle class="cls-6" cx="1220.32" cy="241.1" r="3.17"/><circle class="cls-6" cx="1270.63" cy="241.1" r="3.17"/><circle class="cls-8" cx="1169.62" cy="452.79" r="3.17"/><circle class="cls-6" cx="1219.93" cy="452.79" r="3.17"/><circle class="cls-7" cx="1164.47" cy="306.68" r="3.17"/><circle class="cls-7" cx="1159.72" cy="296.44" r="3.17"/><circle class="cls-6" cx="1156.54" cy="256.78" r="3.17"/><circle class="cls-6" cx="1169.62" cy="271.43" r="3.17"/><circle class="cls-6" cx="1185.07" cy="309.86" r="3.17"/><circle class="cls-9" cx="1217.15" cy="322.14" r="3.17"/><circle class="cls-9" cx="1199.33" cy="393.44" r="3.17"/><circle class="cls-6" cx="1181.89" cy="411.26" r="3.17"/><circle class="cls-6" cx="1231.02" cy="296.44" r="3.17"/><circle class="cls-6" cx="1250.82" cy="249.05" r="3.17"/><line class="cls-9" x1="879.46" y1="282.03" x2="913.78" y2="282.03"/><line class="cls-9" x1="964.03" y1="452.79" x2="990.63" y2="452.79"/><line class="cls-9" x1="964.03" y1="343.82" x2="988.39" y2="343.82"/><line class="cls-9" x1="1038.08" y1="384.73" x2="1169.62" y2="384.73"/><line class="cls-9" x1="1102.46" y1="452.79" x2="1169.62" y2="452.79"/><line class="cls-9" x1="1038.08" y1="302.28" x2="1143.08" y2="302.28"/><line class="cls-9" x1="1180.68" y1="271.43" x2="1210.94" y2="271.43"/><line class="cls-9" x1="963.05" y1="242.29" x2="987.41" y2="242.29"/><path class="cls-5" d="M684.6,698.61V495h80.59l35.91,127L837,495h80.59V698.61H857.65V636.4l.85-31.67L861.89,568h-.57l-37,130.64H777.91L740.87,568h-.57l2.83,30,1.41,31.67v69Z"/><path class="cls-5" d="M937.67,698.61l73-203.59h67.86l73,203.59H1085l-7.92-26.86h-66.45L1003,698.61ZM1044,556.38l-20.64,73h42.13Z"/><path class="cls-5" d="M1231.74,698.61h-74.93l72.11-105.75-65-97.84h74.93l28.84,52,29.13-52h74.93L1303,592.86l69.28,105.75h-74.93l-32.8-57.12Z"/><rect class="cls-8" x="682" y="676.16" width="8.71" height="22.18"/><rect class="cls-8" x="695.87" y="676.16" width="8.71" height="22.18"/><rect class="cls-8" x="709.14" y="676.16" width="8.71" height="22.18"/><rect class="cls-8" x="723" y="676.16" width="8.71" height="22.18"/><rect class="cls-8" x="737.44" y="676.16" width="8.71" height="22.18"/><rect class="cls-8" x="681.62" y="494.76" width="8.71" height="22.18"/><rect class="cls-8" x="695.48" y="494.76" width="8.71" height="22.18"/><rect class="cls-8" x="708.75" y="494.76" width="8.71" height="22.18"/><rect class="cls-8" x="722.62" y="494.76" width="8.71" height="22.18"/><rect class="cls-8" x="735.86" y="494.76" width="8.71" height="22.18"/><rect class="cls-8" x="748.6" y="494.76" width="8.71" height="22.18"/><rect class="cls-8" x="761.29" y="494.76" width="8.71" height="22.18"/><line class="cls-9" x1="684.89" y1="655.31" x2="717.47" y2="655.31"/><polyline class="cls-9" points="684.89 666.31 684.89 647.09 713.11 647.09 713.11 615.14 700.38 601.48 700.38 589.82 693.8 589.82 693.8 607.5 706.66 621.28 706.66 640.05 684.89 640.05 684.89 633.08 695.48 633.08 695.87 621.28 684.89 621.28 684.89 582.87 702.61 582.87 706.56 588.41 706.56 599.51 717.47 611.39 731.33 611.39 731.33 604.66 717.85 604.66 711.71 596.55 711.71 587.62 704.58 577.72 684.89 577.72 684.89 569.8 704.58 569.8 717.47 586.43 717.47 594.36 731.33 594.36 731.33 562.27 713.11 562.27 713.11 551.18 720.33 551.18 720.33 544.84 713.11 544.84 713.11 516.95"/><circle class="cls-7" cx="800.51" cy="624.46" r="3.17"/><polyline class="cls-7" points="741.79 676.16 741.79 664.47 733.78 656.46 733.78 647.44 737.79 647.44 737.79 653.77 741.79 653.77 741.79 638.72 726.97 638.72 726.97 624.46 741.79 624.46 741.79 584.06"/><polyline class="cls-9" points="684.89 666.31 713.5 666.31 713.11 676.16"/><polyline class="cls-7" points="726.97 676.16 726.97 671.23 735.86 671.23 735.86 666.31 727.36 659.34 727.36 647.69 720.33 647.69 720.33 615.54 735.86 615.54 735.86 555.26 726.97 555.26 726.97 515.92"/><circle class="cls-6" cx="685.98" cy="666.31" r="3.17"/><line class="cls-9" x1="699.84" y1="676.16" x2="699.84" y2="655.31"/><line class="cls-7" x1="684.89" y1="676.16" x2="684.89" y2="666.31"/><polyline class="cls-9" points="699.19 515.92 699.19 529.19 706.17 529.19 706.17 562.67 684.89 562.67"/><polyline class="cls-9" points="684.89 516.95 684.89 534.94 691.91 534.94 691.91 545.24 695.53 545.24 695.48 534.94 699.84 534.94 699.84 552.76 684.89 552.76"/><circle class="cls-6" cx="741.79" cy="580.88" r="3.17"/><polyline class="cls-7" points="740.22 515.92 740.22 522.76 732.9 522.76 732.9 548.01 743.3 548.01 743.3 562.67"/><circle class="cls-6" cx="743.3" cy="565.84" r="3.17"/><polyline class="cls-7" points="743.3 565.84 751.92 565.84 751.92 587.82 746.48 587.82 750.14 600.3 754.89 600.3 754.89 614.86"/><polyline class="cls-7" points="752.96 516.95 752.96 523.35 746.15 523.35 746.15 529.19 735.86 529.19 735.86 542.96 746.15 542.96 746.48 534.86 752.96 534.86 752.96 556.92 759.35 556.92 759.35 564.35 754.89 564.35 754.89 591.63 751.43 591.63 752.96 596.55 759.35 596.55 759.35 633.08"/><polyline class="cls-7" points="746.15 529.19 761.29 529.19 761.29 549.2 765.65 549.2 765.65 569.01 759.35 569.01 759.35 591.63 765.65 591.63 765.65 604.46 773.9 604.46 773.9 633.08 765.65 633.08 765.65 612.78 770 612.78 770 621.28"/><polyline class="cls-7" points="765.65 515.92 765.65 529.19 771.23 529.19 771.23 539.3 765.65 539.3 765.65 545.34 778.26 545.34"/><line class="cls-7" x1="765.65" y1="555.44" x2="781.33" y2="555.44"/><line class="cls-7" x1="765.65" y1="562.67" x2="784" y2="562.67"/><line class="cls-7" x1="765.65" y1="569.01" x2="785.79" y2="569.01"/><polyline class="cls-7" points="771.95 569.01 771.95 575.01 763.5 575.01 763.5 580.88 771.95 580.88 771.95 596.55"/><polyline class="cls-7" points="763.5 577.71 778.26 577.71 778.26 638.62 760.03 638.62"/><polyline class="cls-9" points="800.51 627.63 800.51 635.06 800.51 697.15"/><polyline class="cls-7" points="800.51 633.08 792.62 633.08 792.62 616.94 798.56 616.94 795.29 605.35 786.98 605.35 786.98 599.11 793.74 599.11 789.65 584.06 784 584.06 784 575.01 786.98 575.01"/><polyline class="cls-7" points="785.79 588.41 788.16 596.04 782.82 596.04 782.82 610.99 788.16 610.99 788.16 640.41 795 640.41 795 646.64 782.82 646.64 782.82 622.58"/><polyline class="cls-9" points="800.51 653.18 778.26 653.18 778.26 644.57 762.32 644.57 763.5 650.21 773.49 650.21 773.49 656.75 765.65 656.75 771.95 677.84"/><polyline class="cls-9" points="799.45 661.2 771.95 661.2 777.17 677.84 782.82 677.84 782.82 666.31 795 666.31 795 697.15"/><polyline class="cls-9" points="795 671.23 787.57 671.23 787.57 682.3 773.49 682.3"/><polyline class="cls-9" points="774.83 687.25 790.24 687.25 790.24 697.22"/><line class="cls-9" x1="775.72" y1="693.29" x2="784.24" y2="693.29"/><rect class="cls-8" x="911.23" y="676.16" width="8.71" height="22.18"/><rect class="cls-8" x="897.36" y="676.16" width="8.71" height="22.18"/><rect class="cls-8" x="884.09" y="676.16" width="8.71" height="22.18"/><rect class="cls-8" x="870.23" y="676.16" width="8.71" height="22.18"/><rect class="cls-8" x="855.79" y="676.16" width="8.71" height="22.18"/><rect class="cls-8" x="911.61" y="494.76" width="8.71" height="22.18"/><rect class="cls-8" x="897.75" y="494.76" width="8.71" height="22.18"/><rect class="cls-8" x="884.48" y="494.76" width="8.71" height="22.18"/><rect class="cls-8" x="870.61" y="494.76" width="8.71" height="22.18"/><rect class="cls-8" x="857.37" y="494.76" width="8.71" height="22.18"/><rect class="cls-8" x="844.63" y="494.76" width="8.71" height="22.18"/><rect class="cls-8" x="831.94" y="494.76" width="8.71" height="22.18"/><line class="cls-9" x1="917.06" y1="655.31" x2="881.62" y2="655.31"/><line class="cls-9" x1="888.84" y1="530.98" x2="888.84" y2="516.95"/><polyline class="cls-9" points="917.06 666.31 917.06 647.09 888.84 647.09 888.84 615.14 901.57 601.48 901.57 589.82 908.14 589.82 908.14 607.5 895.28 621.28 895.28 640.05 917.06 640.05 917.06 633.08 906.46 633.08 906.08 621.28 917.06 621.28 917.06 582.87 899.34 582.87 895.38 588.41 895.38 599.51 884.48 611.39 870.61 611.39 870.61 604.66 884.09 604.66 890.23 596.55 890.23 587.62 897.36 577.72 917.06 577.72 917.06 569.8 897.36 569.8 884.48 586.43 884.48 594.36 870.61 594.36 870.61 562.27 888.84 562.27 888.84 551.18 881.62 551.18 881.62 544.84 888.84 544.84 888.84 538.9"/><polyline class="cls-7" points="860.15 676.16 860.15 664.47 868.16 656.46 868.16 647.44 864.16 647.44 864.16 653.77 860.15 653.77 860.15 638.72 874.97 638.72 874.97 624.46 860.15 624.46 860.15 584.06"/><polyline class="cls-9" points="917.06 666.31 888.45 666.31 888.84 676.16"/><polyline class="cls-9" points="874.97 676.16 874.97 671.23 866.08 671.23 866.08 666.31 874.59 659.34 874.59 647.69 881.62 647.69 881.62 615.54 866.08 615.54 866.08 555.26 874.97 555.26 874.97 515.92"/><line class="cls-9" x1="902.11" y1="676.16" x2="902.11" y2="655.31"/><line class="cls-9" x1="917.06" y1="676.16" x2="917.06" y2="668.85"/><polyline class="cls-9" points="902.75 515.92 902.75 529.19 895.78 529.19 895.78 562.67 912.8 562.67"/><polyline class="cls-9" points="917.06 516.95 917.06 534.94 910.04 534.94 910.04 545.24 906.42 545.24 906.46 534.94 902.11 534.94 902.11 552.76 912.8 552.76"/><circle class="cls-6" cx="860.15" cy="580.88" r="3.17"/><polyline class="cls-7" points="861.73 515.92 861.73 522.76 869.04 522.76 869.04 548.01 858.64 548.01 858.64 562.67"/><circle class="cls-6" cx="858.64" cy="565.84" r="3.17"/><polyline class="cls-7" points="858.64 565.84 850.03 565.84 850.03 587.82 855.47 587.82 851.81 600.3 847.06 600.3 847.06 614.86"/><polyline class="cls-7" points="848.99 516.95 848.99 523.35 855.79 523.35 855.79 529.19 866.08 529.19 866.08 542.96 855.79 542.96 855.47 534.86 848.99 534.86 848.99 556.92 842.6 556.92 842.6 564.35 847.06 564.35 847.06 591.63 850.52 591.63 848.99 596.55 842.6 596.55 842.6 633.08"/><polyline class="cls-7" points="855.79 529.19 840.65 529.19 840.65 549.2 836.3 549.2 836.3 569.01 842.6 569.01 842.6 591.63 836.3 591.63 836.3 604.46 828.04 604.46 828.04 633.08 836.3 633.08 836.3 612.78 831.94 612.78 831.94 621.28"/><polyline class="cls-7" points="836.3 515.92 836.3 529.19 830.72 529.19 830.72 539.3 836.3 539.3 836.3 545.34 823.68 545.34"/><line class="cls-7" x1="836.3" y1="555.44" x2="820.61" y2="555.44"/><line class="cls-7" x1="836.3" y1="562.67" x2="817.94" y2="562.67"/><line class="cls-7" x1="836.3" y1="569.01" x2="816.16" y2="569.01"/><polyline class="cls-7" points="829.99 569.01 829.99 575.01 838.44 575.01 838.44 580.88 829.99 580.88 829.99 596.55"/><polyline class="cls-7" points="838.44 577.71 823.68 577.71 823.68 638.62 841.92 638.62"/><polyline class="cls-7" points="801.44 633.08 809.33 633.08 809.33 616.94 803.38 616.94 806.65 605.35 814.97 605.35 814.97 599.11 808.2 599.11 812.3 584.06 817.94 584.06 817.94 575.01 814.97 575.01"/><polyline class="cls-7" points="816.16 588.41 813.78 596.04 819.13 596.04 819.13 610.99 813.78 610.99 813.78 640.41 806.95 640.41 806.95 646.64 819.13 646.64 819.13 622.58"/><polyline class="cls-9" points="801.44 653.18 823.68 653.18 823.68 644.57 839.63 644.57 838.44 650.21 828.46 650.21 828.46 656.75 836.3 656.75 829.99 677.84"/><polyline class="cls-9" points="802.49 661.2 829.99 661.2 824.77 677.84 819.13 677.84 819.13 666.31 806.95 666.31 806.95 697.15"/><polyline class="cls-9" points="806.95 671.23 814.38 671.23 814.38 682.3 828.46 682.3"/><polyline class="cls-9" points="827.12 687.25 811.7 687.25 811.7 697.22"/><line class="cls-9" x1="826.23" y1="693.29" x2="817.7" y2="693.29"/><circle class="cls-6" cx="684.89" cy="552.76" r="3.17"/><circle class="cls-6" cx="684.89" cy="562.67" r="3.17"/><circle class="cls-6" cx="778.26" cy="545.34" r="3.17"/><circle class="cls-6" cx="779.98" cy="555.44" r="3.17"/><circle class="cls-7" cx="721.51" cy="655.31" r="3.17"/><circle class="cls-6" cx="784.24" cy="569.01" r="3.17"/><circle class="cls-6" cx="771.95" cy="596.55" r="3.17"/><circle class="cls-7" cx="782.53" cy="620.1" r="3.17"/><circle class="cls-6" cx="770.01" cy="621.28" r="3.17"/><circle class="cls-6" cx="819.13" cy="621.28" r="3.17"/><circle class="cls-6" cx="800.51" cy="661.2" r="3.17"/><circle class="cls-6" cx="784.24" cy="693.29" r="3.17"/><circle class="cls-6" cx="817.7" cy="693.29" r="3.17"/><circle class="cls-6" cx="829.99" cy="596.55" r="3.17"/><circle class="cls-6" cx="817.7" cy="569.01" r="3.17"/><circle class="cls-6" cx="822.3" cy="555.44" r="3.17"/><circle class="cls-6" cx="825.48" cy="545.34" r="3.17"/><circle class="cls-6" cx="713.5" cy="530.63" r="3.17"/><circle class="cls-6" cx="881.62" cy="655.31" r="3.17"/><circle class="cls-7" cx="915.97" cy="552.76" r="3.17"/><circle class="cls-7" cx="915.97" cy="562.67" r="3.17"/><circle class="cls-7" cx="888.45" cy="533.8" r="3.17"/><rect class="cls-8" x="979.96" y="675.64" width="8.71" height="22.18"/><rect class="cls-8" x="992.69" y="675.64" width="8.71" height="22.18"/><rect class="cls-6" x="966.56" y="675.64" width="8.71" height="22.18"/><circle class="cls-7" cx="1044.6" cy="553.87" r="3.17"/><polyline class="cls-9" points="984.31 676.67 984.31 669.83 977 669.83 977 644.58 987.4 644.58 987.4 629.92"/><circle class="cls-6" cx="987.4" cy="626.75" r="3.17"/><polyline class="cls-7" points="987.4 626.75 996.01 626.75 996.01 604.77 990.57 604.77 994.23 592.29 998.98 592.29 998.98 577.74"/><polyline class="cls-9" points="997.05 675.64 997.05 669.24 990.24 669.24 990.24 663.4 979.96 663.4 979.96 649.63 990.24 649.63 990.57 657.74 997.05 657.74 997.05 635.67 1003.44 635.67 1003.44 628.24 998.98 628.24 998.98 600.96 995.52 600.96 997.05 596.04 1003.44 596.04 1003.44 559.51"/><polyline class="cls-7" points="990.24 663.4 1005.38 663.4 1005.38 643.39 1009.74 643.39 1009.74 623.58 1003.44 623.58 1003.44 600.96 1009.74 600.96 1009.74 588.13 1018 588.13 1018 559.51 1009.74 559.51 1009.74 579.82 1014.1 579.82 1014.1 571.31"/><polyline class="cls-7" points="1009.74 676.67 1009.74 663.4 1015.32 663.4 1015.32 653.29 1009.74 653.29 1009.74 647.25 1022.35 647.25"/><line class="cls-7" x1="1009.74" y1="637.15" x2="1025.42" y2="637.15"/><polyline class="cls-7" points="1016.05 623.58 1016.05 617.58 1007.6 617.58 1007.6 611.71 1016.05 611.71 1016.05 596.04"/><polyline class="cls-9" points="1007.6 614.88 1022.35 614.88 1022.35 553.97 990.24 553.87"/><polyline class="cls-9" points="1044.6 550.7 1044.6 542.41 1044.6 495.44"/><polyline class="cls-7" points="1026.91 570.01 1026.91 545.95 1039.09 545.95 1039.09 552.19 1032.26 552.19 1032.26 581.6 1026.91 581.6 1026.91 596.55 1032.26 596.55 1029.88 604.18 1024.07 623.58 1009.74 623.58"/><polyline class="cls-7" points="1044.6 539.41 1022.35 539.41 1022.35 548.03 1006.41 548.03 1007.6 542.38 1017.58 542.38 1017.58 535.85 1009.74 535.85 1014.1 521.27 1001.48 521.27"/><polyline class="cls-9" points="1043.55 531.39 1016.05 531.39 1021.26 514.75 1026.91 514.75 1026.91 526.28 1039.09 526.28 1039.09 495.44"/><polyline class="cls-9" points="1039.09 521.36 1031.66 521.36 1031.66 510.3 1017.58 510.3"/><polyline class="cls-9" points="1018.92 505.34 1034.34 505.34 1034.34 495.37"/><polyline class="cls-9" points="1028.34 499.3 1011.82 499.3 1011.82 508.99"/><rect class="cls-8" x="1101.46" y="675.56" width="8.71" height="22.18"/><rect class="cls-8" x="1088.72" y="675.56" width="8.71" height="22.18"/><rect class="cls-6" x="1114.32" y="675.56" width="8.71" height="22.18"/><circle class="cls-6" cx="1104.24" cy="611.71" r="3.17"/><polyline class="cls-9" points="1105.82 676.67 1105.82 669.83 1113.13 669.83 1113.13 644.58 1102.74 644.58 1102.74 629.92"/><circle class="cls-6" cx="1102.74" cy="626.75" r="3.17"/><polyline class="cls-7" points="1102.74 626.75 1094.12 626.75 1094.12 604.77 1099.56 604.77 1095.9 592.29 1091.15 592.29 1091.15 577.74"/><polyline class="cls-9" points="1093.08 675.64 1093.08 669.24 1099.89 669.24 1099.89 663.4 1110.18 663.4 1110.18 649.63 1099.89 649.63 1099.56 657.74 1093.08 657.74 1093.08 635.67 1086.69 635.67 1086.69 628.24 1091.15 628.24 1091.15 600.96 1094.61 600.96 1093.08 596.04 1086.69 596.04 1086.69 559.51"/><polyline class="cls-7" points="1099.89 663.4 1084.75 663.4 1084.75 643.39 1080.39 643.39 1080.39 623.58 1086.69 623.58 1086.69 600.96 1080.39 600.96 1080.39 588.13 1072.13 588.13 1072.13 559.51 1080.39 559.51 1080.39 579.82 1076.03 579.82 1076.03 571.31"/><polyline class="cls-7" points="1079.2 679.09 1079.2 664.74 1073.62 664.74 1073.62 653.79 1079.2 653.79 1079.2 647.25 1066.59 647.25"/><line class="cls-7" x1="1080.39" y1="637.15" x2="1064.71" y2="637.15"/><polyline class="cls-7" points="1080.39 629.92 1062.03 629.92 1028.1 629.92 1009.74 629.92"/><polyline class="cls-7" points="1074.08 623.58 1074.08 617.58 1082.53 617.58 1082.53 611.71 1074.08 611.71 1074.08 596.04"/><polyline class="cls-9" points="1082.53 614.88 1067.78 614.88 1067.78 553.97 1098.43 553.97"/><polyline class="cls-7" points="1063.22 570.01 1063.22 545.95 1051.04 545.95 1051.04 552.19 1057.88 552.19 1057.88 581.6 1063.22 581.6 1063.22 596.55 1057.88 596.55 1064.63 623.58 1080.39 623.58"/><polyline class="cls-7" points="1045.53 539.41 1067.78 539.41 1067.78 548.03 1083.72 548.03 1082.53 542.38 1072.55 542.38 1072.55 535.85 1080.39 535.85 1076.03 521.27 1087.83 521.27"/><polyline class="cls-9" points="1046.59 531.39 1074.08 531.39 1068.87 514.75 1063.22 514.75 1063.22 526.28 1051.04 526.28 1051.04 495.44"/><polyline class="cls-9" points="1051.04 521.36 1058.47 521.36 1058.47 510.3 1072.55 510.3"/><polyline class="cls-9" points="1071.21 505.34 1055.8 505.34 1055.8 495.37"/><polyline class="cls-9" points="1061.8 499.3 1076.89 499.3 1076.89 508.99"/><circle class="cls-6" cx="1022.35" cy="647.25" r="3.17"/><circle class="cls-6" cx="1024.07" cy="637.15" r="3.17"/><circle class="cls-6" cx="1016.05" cy="596.04" r="3.17"/><circle class="cls-7" cx="1026.63" cy="572.5" r="3.17"/><circle class="cls-6" cx="1014.1" cy="571.31" r="3.17"/><circle class="cls-6" cx="1063.22" cy="571.31" r="3.17"/><circle class="cls-6" cx="1044.6" cy="531.39" r="3.17"/><circle class="cls-6" cx="1028.34" cy="499.3" r="3.17"/><circle class="cls-6" cx="1061.8" cy="499.3" r="3.17"/><circle class="cls-6" cx="1074.08" cy="596.04" r="3.17"/><circle class="cls-6" cx="1066.4" cy="637.15" r="3.17"/><circle class="cls-6" cx="1069.57" cy="647.25" r="3.17"/><rect class="cls-6" x="953.89" y="675.64" width="8.71" height="22.18"/><rect class="cls-6" x="1126.6" y="675.56" width="8.71" height="22.18"/><circle class="cls-7" cx="1037.51" cy="637.15" r="3.17"/><circle class="cls-7" cx="1034.34" cy="647.74" r="3.17"/><circle class="cls-7" cx="1051.04" cy="637.15" r="3.17"/><circle class="cls-7" cx="1054.22" cy="647.74" r="3.17"/><polyline class="cls-7" points="1032.66 650.43 1026.07 663.4 1063.22 663.4 1056.59 649.83"/><line class="cls-7" x1="1047.87" y1="637.15" x2="1040.68" y2="637.15"/><line class="cls-7" x1="1044.28" y1="637.15" x2="1044.28" y2="669.97"/><line class="cls-7" x1="1029.51" y1="656.62" x2="1059.9" y2="656.62"/><line class="cls-7" x1="1070.99" y1="669.97" x2="1019.18" y2="669.97"/><circle class="cls-6" cx="1011.82" cy="512.17" r="3.17"/><circle class="cls-6" cx="1077.26" cy="511.58" r="3.17"/><circle class="cls-7" cx="1264.84" cy="624.5" r="3.17"/><rect class="cls-8" x="1321.7" y="494.81" width="8.71" height="22.18"/><rect class="cls-8" x="1308.96" y="494.81" width="8.71" height="22.18"/><rect class="cls-8" x="1296.27" y="494.81" width="8.71" height="22.18"/><polyline class="cls-9" points="1326.06 515.97 1326.06 522.8 1333.37 522.8 1333.37 548.06 1322.98 548.06 1322.98 562.71"/><circle class="cls-6" cx="1322.98" cy="561.13" r="3.17"/><line class="cls-9" x1="1306.93" y1="598.52" x2="1306.93" y2="633.12"/><polyline class="cls-9" points="1313.32 516.99 1313.32 523.4 1320.13 523.4 1320.13 529.23 1330.42 529.23 1330.42 543.01 1320.13 543.01 1319.8 534.9 1313.32 534.9 1313.32 556.97 1306.93 556.97 1306.93 564.4 1311.39 564.4 1311.39 580.6"/><polyline class="cls-9" points="1302.99 591.67 1300.63 591.67 1300.63 604.5 1292.38 604.5 1292.38 633.12 1300.63 633.12 1300.63 612.82 1296.27 612.82 1296.27 621.33"/><polyline class="cls-9" points="1320.13 529.23 1304.99 529.23 1304.99 549.25 1300.63 549.25 1300.63 569.06 1306.93 569.06 1306.93 586.82"/><polyline class="cls-9" points="1300.63 515.97 1300.63 529.23 1295.05 529.23 1295.05 539.34 1300.63 539.34 1300.63 545.38 1288.02 545.38"/><line class="cls-9" x1="1300.63" y1="555.48" x2="1284.95" y2="555.48"/><line class="cls-9" x1="1300.63" y1="562.71" x2="1282.27" y2="562.71"/><line class="cls-9" x1="1300.63" y1="569.06" x2="1280.49" y2="569.06"/><polyline class="cls-9" points="1294.32 569.06 1294.32 575.06 1302.77 575.06 1302.77 580.93 1294.32 580.93 1294.32 596.6"/><polyline class="cls-9" points="1302.77 577.76 1288.02 577.76 1288.02 638.67 1321.7 638.67 1321.7 675.82"/><polyline class="cls-9" points="1280.49 588.46 1278.12 596.09 1283.46 596.09 1283.46 611.04 1278.12 611.04 1278.12 640.45 1271.28 640.45 1271.28 646.69 1283.46 646.69 1283.46 622.63"/><polyline class="cls-9" points="1270.64 653.23 1288.02 653.23 1288.02 644.61 1303.96 644.61 1302.77 650.26 1292.79 650.26 1292.79 656.79 1300.63 656.79 1294.32 677.88"/><path class="cls-7" d="M1271.28,697.2"/><polyline class="cls-9" points="1274.8 661.25 1294.32 661.25 1289.11 677.88 1283.46 677.88 1283.46 666.35 1277.77 666.35"/><circle class="cls-6" cx="1283.46" cy="621.33" r="3.17"/><circle class="cls-6" cx="1294.32" cy="596.6" r="3.17"/><circle class="cls-6" cx="1282.04" cy="569.06" r="3.17"/><circle class="cls-6" cx="1286.64" cy="555.48" r="3.17"/><circle class="cls-6" cx="1289.81" cy="545.38" r="3.17"/><rect class="cls-8" x="1196.58" y="674.8" width="8.71" height="22.18"/><rect class="cls-8" x="1209.32" y="674.8" width="8.71" height="22.18"/><rect class="cls-8" x="1222.01" y="674.8" width="8.71" height="22.18"/><polyline class="cls-9" points="1200.94 675.82 1200.94 668.99 1193.62 668.99 1193.62 643.74 1204.02 643.74 1204.02 629.08"/><polyline class="cls-9" points="1204.02 625.91 1212.64 625.91 1212.64 616.04"/><polyline class="cls-9" points="1220.07 579.5 1220.07 558.67 1207.2 558.67"/><polyline class="cls-9" points="1213.68 674.8 1213.68 668.4 1206.87 668.4 1206.87 662.56 1196.58 662.56 1196.58 648.79 1206.87 648.79 1207.2 656.89 1213.68 656.89 1213.68 634.83 1220.07 634.83 1220.07 627.4 1215.61 627.4 1215.61 612.78"/><polyline class="cls-9" points="1226.37 588.71 1226.37 587.29 1234.62 587.29 1234.62 558.67 1226.37 558.67 1226.37 578.97 1230.72 578.97 1230.72 570.46"/><polyline class="cls-9" points="1224.29 600.12 1226.37 600.12 1226.37 596.44"/><polyline class="cls-9" points="1206.87 662.56 1222.01 662.56 1222.01 642.55 1226.37 642.55 1226.37 622.73 1220.07 622.73 1220.07 605.65"/><polyline class="cls-9" points="1226.37 675.82 1226.37 662.56 1231.95 662.56 1231.95 652.45 1226.37 652.45 1226.37 646.41 1238.98 646.41"/><line class="cls-9" x1="1226.37" y1="636.31" x2="1242.05" y2="636.31"/><line class="cls-9" x1="1226.37" y1="629.08" x2="1244.72" y2="629.08"/><line class="cls-9" x1="1226.37" y1="622.73" x2="1246.51" y2="622.73"/><polyline class="cls-9" points="1232.67 622.73 1232.67 616.74 1224.22 616.74 1224.22 610.87 1232.67 610.87 1232.67 595.2"/><polyline class="cls-9" points="1224.22 614.04 1238.98 614.04 1238.98 553.13 1220.75 553.13"/><polyline class="cls-9" points="1264.84 621.33 1264.84 571.31 1257.57 571.31 1257.57 567.29 1268.01 567.29 1268.01 558.67 1261.23 558.67 1253.34 558.67 1253.34 574.81 1259.28 574.81 1256.01 586.4 1247.69 586.4 1247.69 592.64 1254.46 592.64 1250.37 607.69 1244.72 607.69 1244.72 616.74 1252.22 616.74 1252.22 662.56"/><polyline class="cls-9" points="1246.51 603.33 1248.88 595.71 1243.54 595.71 1243.54 580.75 1248.88 580.75 1248.88 551.34 1255.72 551.34 1255.72 545.1 1243.54 545.1 1243.54 569.17"/><polyline class="cls-9" points="1261.23 538.57 1238.98 538.57 1238.98 547.18 1223.04 547.18 1224.22 541.54 1234.21 541.54 1234.21 535 1226.37 535 1232.67 513.91 1177.55 513.91"/><polyline class="cls-9" points="1260.17 530.55 1232.67 530.55 1237.89 513.91 1243.54 513.91 1243.54 525.44 1255.72 525.44"/><polyline class="cls-9" points="1255.72 520.52 1248.29 520.52 1248.29 509.45 1234.21 509.45"/><line class="cls-9" x1="1172" y1="504.5" x2="1244.2" y2="504.5"/><line class="cls-9" x1="1166.85" y1="498.46" x2="1240.08" y2="498.46"/><circle class="cls-6" cx="1238.98" cy="646.41" r="3.17"/><circle class="cls-6" cx="1240.7" cy="636.31" r="3.17"/><circle class="cls-6" cx="1244.96" cy="622.73" r="3.17"/><circle class="cls-6" cx="1232.67" cy="595.2" r="3.17"/><circle class="cls-6" cx="1243.25" cy="571.65" r="3.17"/><circle class="cls-6" cx="1230.72" cy="570.46" r="3.17"/><polyline class="cls-9" points="1289.81 545.38 1272.72 545.38 1272.72 575.06 1279.3 575.06 1282.27 575.06 1282.27 584.1 1276.63 584.1 1272.54 599.16 1279.3 599.16 1279.3 605.39 1270.98 605.39 1267.72 616.98 1273.66 616.98 1273.66 633.12 1255.72 633.12 1255.72 656.62"/><line class="cls-9" x1="1264.84" y1="641.59" x2="1264.84" y2="627.68"/><rect class="cls-8" x="1317.62" y="674.8" width="8.71" height="22.18"/><rect class="cls-6" x="1304.88" y="674.8" width="8.71" height="22.18"/><rect class="cls-6" x="1330.48" y="674.8" width="8.71" height="22.18"/><rect class="cls-6" x="1342.76" y="674.8" width="8.71" height="22.18"/><circle class="cls-6" cx="915.97" cy="666.31" r="3.17"/><circle class="cls-6" cx="1205.68" cy="627.68" r="3.17"/><path d="M979.53,854c-1.69,3.69-2.67,8-5.22,10.94-6,7-6.3,12.15-.94,19.44,1.77,2.41,2.26,6.21,2.29,9.39.18,24.8.1,49.59.1,74.39,0,3.08,0,6.16,0,9.87h20.36v-22.3l10.44-1.16V926.62l21.73-6.62,0,2.4c2.58,2.29,5.49,4.32,7.6,7,1.2,1.5,1.48,4,1.5,6.12.14,11.22.06,22.45.06,34.27h15.61V869.94c3.12-.36,5.26-.81,7.4-.82q29.19-.08,58.38,0a29.62,29.62,0,0,1,5.9.29c12.93,2.66,15.81,6.29,15.81,19.55q0,39.76,0,79.53v10h28.49c.18,2.86,0,4.88.52,6.69.38,1.31,1.7,2.34,2.6,3.5,1.19-1.18,3-2.16,3.46-3.59,1.1-3.09,2.32-6.45,2.13-9.62-.59-9.94,7.27-10.57,13.34-11.51,7.38-1.14,15.08-.27,23.16-.27l1,11h14.45l.78-10.13c5.86-2.2,7.85-.18,7.78,5.54-.18,14.31-.06,28.63-.06,42.82,5.7,2.14,8.28,1,8.15-4.67-.16-7,0-14.08,0-21.12l2.71.55c1.42-4.15,4.07-8.29,4.09-12.44.28-60.91.21-121.83.22-182.74,0-3.62,0-7.23,0-11.4h64c0,3.11,0,6.11,0,9.11q0,47.8,0,95.6c0,13.66.44,14,15.39,11.09V878.49l8.51-1.79,1.11-10.31,26.57-3.76c0-12.55-.63-24.65.2-36.64.67-9.72,3.08-19.32,4.76-29.23h55.89l4.65,39.52h25.18l1.12,17.47c4.6-1.3,8.52-2.43,12.46-3.51a16,16,0,0,1,3.26-.61c6.73-.39,13.85,4.73,20.3-2,1-1,5.08.57,7.6,1.37,1.91.61,4.75,3.1,5.2,2.68,2.39-2.28,5.81-5.17,5.89-7.93.56-20,.47-40,.47-60,0-26.51.06-53-.29-79.52-.12-9.29,7.65-10.7,12.94-11.69,10.29-1.94,21.08-3.11,31.09,3.2,4.14,2.61,5.73,5.11,5.7,10-.2,32.15-.09,64.3-.08,96.45,0,2.19,0,4.39,0,9.13,6.42-1.88,11.53-3.49,16.7-4.84a13.27,13.27,0,0,1,5-.09c8.87,1.23,17.72,2.58,26.9,3.93l1.53-11.22c8.64,0,18.28-2.5,25.74.46,25.24,10,51.67,2.51,78,8V910.22h12.54c0-4-.28-8.11.08-12.19s-2.37-9.38,4.06-11.36c.34-.11.72-1,.64-1.48-2.23-11.42,4.91-21.5,5-32.27.56-49.32.25-98.65.25-148,0-10.26,4.28-17.27,14.2-17.94,10.11-.68,20.45,1.48,30.63,2.79,5.28.68,6,4.63,6,9.39-.15,32.12-.07,64.25-.06,96.37,0,3,0,6.08,0,9.53H1927v42.83h34.75c0,14.32-.06,27.73,0,41.15,0,3.94-1.5,8.5,4.55,10.34,1.18.36,1.3,4.94,1.5,7.61.24,3.31.06,6.66.06,10.5l12.82,1v172.93H53.7v-84.93l38.84,6.25-3.34-11.28h21.26l-1.68-8.15h21.14V985c5,0,10-.11,15,0,6.18.17,6.69-2.56,3.77-7.43h28.48c2.89-20.9,19-27.68,35.62-31.83,20.31-5.09,37.61,2.33,51.54,17.87,2.18,2.43,5.19,4.1,8.86,6.92.06-.76-.1.28-.08,1.32s.18,2.14.37,4.11c3.86,0,7.67-.76,11,.22s10.17-3.16,9.17,5.35c0,.17.94.46,1.45.7l24.35,11.45-2.62,4.4,14,2.69-2.45,6.25c3.43.76,6.67.9,9.29,2.25,1.9,1,3,3.55,3.05,6.95l13.45,3.23c-1.82-19.21,4.9-38.32-5.37-56.17C360.89,957.6,357.16,948,355,939c11-4.55,27.31,4.63,33.28-16.09l2.25,6.88c.14-7.47-.65-14.05,8.1-16.82l5,6.81-4.65,8.15,1.71,1.25,5.28-3.11c8.54,11.33,20.69,12.82,33.59,11.72-1.88,20.24-1.44,22,6.37,25-10.75,21.86-2.79,45-5.77,68.82,7.7-1.28,13.83-3,20-3.18,14.65-.43,29.33-.39,44,0,6.49.16,8.85-1.53,8.51-8.59-1.24-25.77-1.61-51.58-2.77-77.35a25,25,0,0,0-4.19-13c-16.15-22.05-32.8-43.74-49.24-65.58-1.67-2.22-3-4.67-4.52-7l7.07-7.38c11,7.18,22.26,14.08,33.06,21.6,34.45,24,68.73,48.23,103.11,72.34,2.24,1.57,4.69,2.86,8,4.84l6-39.69c10.47,10.79,19.46,19.89,28.24,29.19,4,4.2,7.79,7.75,14.28,7.45,2.27-.1,5.2,1.93,6.91,3.82,7.56,8.35,15.16,16.72,22,25.68,3.28,4.32,4.8,10,7.12,15l2.37-.58V961.59l10-1.85,1.19-9.71h19.69c0-16.16-.14-31.58.1-47,.06-3.59-2.49-9,4.54-9.69.57-.06,1.26-2.36,1.28-3.62.23-11.76.19-11.76,13.06-13.35-8.48-9.67-13.26-19.79-1.77-29.72,4.95-4.27,13.51-2.62,17.56,2.25,6.16,7.4,4.77,16.57-4.43,26.81,4.39,1.18,9.67,1.14,12.25,3.76,1.93,2,.38,7.35.38,12.41l5.42,1.18,1,7c10.42,1.91,19.37,12.79,19.36,23.2,0,14.94-.1,29.89.11,44.83,0,2.18,1.51,4.33,2.31,6.5,1.33-1.61,2.55-3.35,4-4.81,2.87-2.86,5.49-6.77,9-8,2.86-1,8.87-3.12,9.6,4.11.07.74,2.64,2.07,3.05,1.77,1.16-.85,2.46-2.38,2.52-3.7.26-6.12.11-12.25.11-18.82l13-.66c5.77-15,17.95-4.22,26.86-8.38l1.79,8.62,7.11.95c.48,1.08,1.09,1.82,1.1,2.56.11,9.87-.15,19.75.38,29.59.14,2.57,2.78,4.94,4,7.52a15.15,15.15,0,0,1,1.91,5.68c.24,6.16.09,12.34.09,19.38H912V984.24c4.62,0,8.47-.35,12.23.08,5.76.65,7.63-.81,7.53-7.26-.47-29.88-.22-59.77-.21-89.65,0-1.38.23-2.75.37-4.44l6.89-1.45V836.43H970v8.11l7.64.93c.67,3.09,1.27,5.83,1.83,8.6-2.65-2.56-5.26-5.14-9-8.87v17.22ZM414.86,1050.24c0-14.22.05-27.61,0-41,0-4.08.32-8.37-.81-12.18-2.36-7.92-12.21-11.92-21.84-9.57-8.51,2.08-12,7.33-11.35,16.56.12,1.6-.61,3.25-.61,4.89-.05,13.56,0,27.11,0,40.9,3.58.19,5.52.38,7.46.39C396.07,1050.26,404.49,1050.24,414.86,1050.24Z"/><polygon class="cls-8" points="1405.41 491.77 1464.05 491.77 1464.05 545.41 1450.33 623.95 1417.89 623.95 1405.41 547.91 1405.41 491.77"/><rect class="cls-8" x="1405.41" y="642.72" width="54.27" height="54.27"/></g></g></g></svg>