<svg xmlns="http://www.w3.org/2000/svg" viewBox="0 0 549.89 167.82"><defs><style>.cls-1{fill:#fff;}</style></defs><title>Recurso 1</title><g id="Capa_2" data-name="Capa 2"><g id="Capa_1-2" data-name="Capa 1"><path class="cls-1" d="M383.61,134.1q0-7.21,3.5-9.61t10.78-2.4h2q7.62,0,11.33,4.94v-3.37q0-2.06,1.44-2.06t1.44,2.06v36.4q0,4.39-1.24,6.08t-4.67,1.68H390.13a8.82,8.82,0,0,1-3.54-.62,3.8,3.8,0,0,1-2-1.82,9.22,9.22,0,0,1-.79-2.27,14.21,14.21,0,0,1-.21-2.64q0-2.06,1.44-2.06t1.44,1.92a5.52,5.52,0,0,0,.89,3.54,4,4,0,0,0,3.23,1.06h17.1a3.73,3.73,0,0,0,2.82-.79,4.72,4.72,0,0,0,.69-3v-8a8.69,8.69,0,0,1-3.64.62h-9.68q-7.28,0-10.78-2.4t-3.5-9.61Zm2.88,7.62a15.27,15.27,0,0,0,.65,4.94,5,5,0,0,0,2.23,2.78,9,9,0,0,0,3.4,1.17,41.38,41.38,0,0,0,5.12.24h9.2a4.22,4.22,0,0,0,3.23-1,5.09,5.09,0,0,0,.89-3.4v-8.65q0-6.18-3-9.51T399.88,125h-2a41.59,41.59,0,0,0-5.12.24,9,9,0,0,0-3.4,1.17,5,5,0,0,0-2.23,2.78,15.27,15.27,0,0,0-.65,4.94Z"/><path class="cls-1" d="M435.14,125q-5.49,0-8.45,3.33t-3,9.51v14.35q0,2.06-1.44,2.06t-1.44-2.06V123.73q0-2.13,1.3-2.13,1.58,0,1.58,2.13V127q3.85-4.94,11.4-4.94h3.16q2.06,0,2.06,1.44T438.3,125Z"/><path class="cls-1" d="M461.19,153.74h-2q-7.28,0-10.78-2.4t-3.5-9.61V134.1q0-7.21,3.5-9.61t10.78-2.4h2q7.21,0,10.71,2.4t3.5,9.61v7.62q0,7.21-3.5,9.61T461.19,153.74Zm-2-2.88h2a40.66,40.66,0,0,0,5-.24,9,9,0,0,0,3.4-1.17,5,5,0,0,0,2.23-2.78,15.3,15.3,0,0,0,.65-4.94V134.1a15.3,15.3,0,0,0-.65-4.94,5,5,0,0,0-2.23-2.78,9,9,0,0,0-3.4-1.17,40.87,40.87,0,0,0-5-.24h-2a41.59,41.59,0,0,0-5.12.24,9,9,0,0,0-3.4,1.17,5,5,0,0,0-2.23,2.78,15.27,15.27,0,0,0-.65,4.94v7.62a15.27,15.27,0,0,0,.65,4.94,5,5,0,0,0,2.23,2.78,9,9,0,0,0,3.4,1.17A41.38,41.38,0,0,0,459.19,150.85Z"/><path class="cls-1" d="M498.43,150.85q5.42,0,8.38-3.3t3-9.48V123.66q0-2.06,1.44-2.06t1.44,2.06v28.43q0,2.13-1.3,2.13-1.58,0-1.58-2.13v-3.3q-3.71,4.94-11.33,4.94h-2q-7.28,0-10.78-2.4t-3.5-9.61V123.66q0-2.06,1.37-2.06t1.51,2.06v18.06a15.27,15.27,0,0,0,.65,4.94,5,5,0,0,0,2.23,2.78,9,9,0,0,0,3.4,1.17,41.38,41.38,0,0,0,5.12.24Z"/><path class="cls-1" d="M549.89,141.72q0,7.21-3.5,9.61t-10.71,2.4H522.28v10.44q0,2.06-1.58,2.06-1.31,0-1.3-2.06V123.66q0-2.06,1.44-2.06t1.44,2.06V127q3.85-4.94,11.4-4.94h2q7.21,0,10.71,2.4t3.5,9.61ZM547,134.1a15.3,15.3,0,0,0-.65-4.94,5,5,0,0,0-2.23-2.78,9,9,0,0,0-3.4-1.17,40.87,40.87,0,0,0-5-.24h-2q-5.49,0-8.45,3.33t-3,9.51v13h13.39a40.66,40.66,0,0,0,5-.24,9,9,0,0,0,3.4-1.17,5,5,0,0,0,2.23-2.78,15.3,15.3,0,0,0,.65-4.94Z"/><path class="cls-1" d="M98.07,21.49H19.58v88.43H0V11.77A9.88,9.88,0,0,1,.75,7.93,10,10,0,0,1,2.82,4.77,9.29,9.29,0,0,1,6,2.66,10.09,10.09,0,0,1,9.87,1.9h88.2Z"/><path class="cls-1" d="M226.58,66.23a47.49,47.49,0,0,1-3.39,18.15,42.25,42.25,0,0,1-23.69,23.69,47.28,47.28,0,0,1-18,3.35H155a47.57,47.57,0,0,1-18-3.35A42.5,42.5,0,0,1,122.7,98.7a43.47,43.47,0,0,1-9.45-14.31,47,47,0,0,1-3.43-18.15V45.59a47.11,47.11,0,0,1,3.43-18.12,43,43,0,0,1,9.45-14.31A43.31,43.31,0,0,1,137,3.79,47.09,47.09,0,0,1,155,.4h26.51a46.8,46.8,0,0,1,18,3.39,43.42,43.42,0,0,1,14.27,9.38,42.52,42.52,0,0,1,9.42,14.31,47.58,47.58,0,0,1,3.39,18.12ZM207,45.59a28.59,28.59,0,0,0-1.85-10.51,22.73,22.73,0,0,0-13.26-13.26A28.16,28.16,0,0,0,181.53,20H155a28.37,28.37,0,0,0-10.43,1.85,23.65,23.65,0,0,0-8.1,5.2,23,23,0,0,0-5.24,8.06,28.57,28.57,0,0,0-1.85,10.51V66.23a28.56,28.56,0,0,0,1.85,10.51,23,23,0,0,0,5.24,8.06,23.61,23.61,0,0,0,8.1,5.2A28.34,28.34,0,0,0,155,91.84h26.36A28.35,28.35,0,0,0,191.81,90a23.62,23.62,0,0,0,8.1-5.2,23,23,0,0,0,5.24-8.06A28.58,28.58,0,0,0,207,66.23Z"/><path class="cls-1" d="M337.75,0H268.57s-23.72-1-29.65,24.71V84.08s3,24.16,24.71,25.32,74.12,0,74.12,0V95.87H262.65s-10.87-3-10.87-21.74V26.69s1.2-13.36,16.52-13.36h69.46Z"/><path class="cls-1" d="M493.34,151.53"/><path class="cls-1" d="M538.92,78.13a34.44,34.44,0,0,1-1.47,10.43,31.18,31.18,0,0,1-3.88,8.17,25.94,25.94,0,0,1-5.65,6,34.68,34.68,0,0,1-6.7,4.07,33.53,33.53,0,0,1-7,2.33,32.75,32.75,0,0,1-6.74.75H431.88V90.34h75.55q5.65,0,8.78-3.31a12.43,12.43,0,0,0,3.13-8.89,14.36,14.36,0,0,0-.83-5,11.49,11.49,0,0,0-2.37-3.92,10.48,10.48,0,0,0-3.77-2.56,13,13,0,0,0-4.93-.9h-45a34.9,34.9,0,0,1-10.24-1.69,30.71,30.71,0,0,1-10.21-5.46,29.78,29.78,0,0,1-7.83-9.87A32.41,32.41,0,0,1,431,33.84Q431,25,434.11,19a30,30,0,0,1,18-15.37A34.9,34.9,0,0,1,462.39,1.9h66.66V21.49H462.39q-5.58,0-8.7,3.39a12.7,12.7,0,0,0-3.13,9q0,5.65,3.13,8.93t8.7,3.28h45.19a34.63,34.63,0,0,1,6.7.87,33.62,33.62,0,0,1,7,2.45A34,34,0,0,1,528,53.54a28.23,28.23,0,0,1,5.61,6.06,29.78,29.78,0,0,1,3.88,8.13A34.92,34.92,0,0,1,538.92,78.13Z"/><path class="cls-1" d="M353.64,27.56a28.62,28.62,0,0,1,9.45-6.2A31.11,31.11,0,0,1,375,19.13H392.5a30.93,30.93,0,0,1,11.87,2.24,28.69,28.69,0,0,1,9.43,6.2A28.1,28.1,0,0,1,420,37a31.41,31.41,0,0,1,2.24,12V62.62a31.36,31.36,0,0,1-2.24,12,27.91,27.91,0,0,1-15.65,15.65,31.23,31.23,0,0,1-11.87,2.21H375a31.42,31.42,0,0,1-11.89-2.21,28.09,28.09,0,0,1-9.45-6.2M409.32,49A18.89,18.89,0,0,0,408.1,42a15,15,0,0,0-8.76-8.76,18.58,18.58,0,0,0-6.84-1.22H375a18.72,18.72,0,0,0-6.89,1.22,15.6,15.6,0,0,0-5.35,3.43A15.17,15.17,0,0,0,359.29,42,18.87,18.87,0,0,0,358.07,49V62.62a18.86,18.86,0,0,0,1.22,6.94,15.15,15.15,0,0,0,3.46,5.32,15.58,15.58,0,0,0,5.35,3.43A18.74,18.74,0,0,0,375,79.54H392.4a18.75,18.75,0,0,0,6.89-1.22,15.59,15.59,0,0,0,5.35-3.43,15.16,15.16,0,0,0,3.46-5.32,18.88,18.88,0,0,0,1.22-6.94Z"/><path class="cls-1" d="M352.94,55.8"/><rect class="cls-1" x="301.75" y="20.9" width="3.01" height="4.56"/><path class="cls-1" d="M308.41,22.64a1,1,0,0,1-.33.76,1.21,1.21,0,0,1-.83.29h-.71a1.21,1.21,0,0,1-.83-.29,1,1,0,0,1-.33-.76V20.4a1,1,0,0,1,.33-.76,1.21,1.21,0,0,1,.83-.29h.71a1.21,1.21,0,0,1,.83.29,1,1,0,0,1,.33.76Zm-2.74-2.34v2.45a.59.59,0,0,0,.24.45.87.87,0,0,0,.58.2h.82a.87.87,0,0,0,.58-.2.59.59,0,0,0,.24-.45V20.29a.59.59,0,0,0-.24-.45.87.87,0,0,0-.58-.2h-.82a.87.87,0,0,0-.58.2A.59.59,0,0,0,305.66,20.29Z"/><rect class="cls-1" x="315.32" y="19.13" width="3.01" height="4.56"/><path class="cls-1" d="M309.86,31.85a2.26,2.26,0,0,1-.94-.24q-.51-.24-.51-.44a.14.14,0,0,1,0-.1.12.12,0,0,1,.09,0l.21.13a2.82,2.82,0,0,0,.49.27,1.53,1.53,0,0,0,.62.13,1.17,1.17,0,0,0,.9-.35,1.38,1.38,0,0,0,.32-1,1.24,1.24,0,0,0-.11-.53.91.91,0,0,0-.28-.35,1.27,1.27,0,0,0-.34-.18,1,1,0,0,0-.33-.06h-1.58l.06-.82a1.14,1.14,0,0,1,.2-.66.7.7,0,0,1,.55-.18h1.64q.18,0,.18.15t-.18.14h-1.69a.37.37,0,0,0-.29.1.57.57,0,0,0-.12.34l0,.65H310a1.42,1.42,0,0,1,1,.39,1.31,1.31,0,0,1,.43,1,1.6,1.6,0,0,1-.43,1.18A1.47,1.47,0,0,1,309.86,31.85Z"/><rect class="cls-1" x="312.31" y="27.25" width="3.01" height="4.56"/><rect class="cls-1" x="304.87" y="27.7" width="3.01" height="4.56"/><path class="cls-1" d="M321.86,23.42a.83.83,0,0,1-.28.61,3,3,0,0,1-.68.48l-.8.43a2.36,2.36,0,0,0-.69.56,1.17,1.17,0,0,0-.28.76h2.53q.2,0,.2.15t-.2.14h-2.82v-.3a1.39,1.39,0,0,1,.15-.64,1.48,1.48,0,0,1,.39-.49,4.32,4.32,0,0,1,.54-.37l.58-.31.53-.29a1.48,1.48,0,0,0,.39-.33.64.64,0,0,0,.15-.41q0-.59-.25-.75a1.69,1.69,0,0,0-.88-.16h-.92a.41.41,0,0,0-.32.1.52.52,0,0,0-.09.34q0,.2-.15.2t-.14-.2a.84.84,0,0,1,.15-.56.64.64,0,0,1,.5-.17h1a3.24,3.24,0,0,1,.58,0,1.3,1.3,0,0,1,.44.17.72.72,0,0,1,.3.37A1.73,1.73,0,0,1,321.86,23.42Z"/><path class="cls-1" d="M309.81,21.25l-.23.23a.23.23,0,0,1-.17.09q-.13,0-.13-.12a.21.21,0,0,1,.08-.15l.42-.43a.24.24,0,0,1,.16-.08H310l.06,0a.15.15,0,0,1,0,.1v4.38q0,.18-.14.18t-.14-.18Z"/><path class="cls-1" d="M314.54,24.41a1,1,0,0,1-.33.76,1.21,1.21,0,0,1-.83.29h-.71a1.21,1.21,0,0,1-.83-.29,1,1,0,0,1-.33-.76V22.17a1,1,0,0,1,.33-.76,1.21,1.21,0,0,1,.83-.29h.71a1.21,1.21,0,0,1,.83.29,1,1,0,0,1,.33.76Zm-2.74-2.34v2.45A.59.59,0,0,0,312,25a.87.87,0,0,0,.58.2h.82A.87.87,0,0,0,314,25a.59.59,0,0,0,.24-.45V22.07a.59.59,0,0,0-.24-.45.87.87,0,0,0-.58-.2h-.82a.87.87,0,0,0-.58.2A.59.59,0,0,0,311.8,22.07Z"/><path class="cls-1" d="M288.2,30.63l-.23.23a.23.23,0,0,1-.17.09q-.13,0-.13-.12a.21.21,0,0,1,.08-.15l.42-.43a.24.24,0,0,1,.16-.08h.06l.06,0a.15.15,0,0,1,0,.1v4.38q0,.18-.14.18t-.14-.18Z"/><path class="cls-1" d="M291.38,34.89a2.26,2.26,0,0,1-.94-.24q-.51-.24-.51-.44a.14.14,0,0,1,0-.1.12.12,0,0,1,.09,0l.21.13a2.82,2.82,0,0,0,.49.27,1.53,1.53,0,0,0,.62.13,1.17,1.17,0,0,0,.9-.35,1.38,1.38,0,0,0,.32-1,1.24,1.24,0,0,0-.11-.53.91.91,0,0,0-.28-.35,1.27,1.27,0,0,0-.34-.18,1,1,0,0,0-.33-.06H290l.06-.82a1.14,1.14,0,0,1,.2-.66.7.7,0,0,1,.55-.18h1.64q.18,0,.18.15t-.18.14h-1.69a.37.37,0,0,0-.29.1.57.57,0,0,0-.12.34l0,.65h1.19a1.42,1.42,0,0,1,1,.39,1.31,1.31,0,0,1,.43,1,1.6,1.6,0,0,1-.43,1.18A1.47,1.47,0,0,1,291.38,34.89Z"/><path class="cls-1" d="M296.92,33.78a1,1,0,0,1-.33.76,1.21,1.21,0,0,1-.83.29h-.71a1.21,1.21,0,0,1-.83-.29,1,1,0,0,1-.33-.76V31.54a1,1,0,0,1,.33-.76,1.21,1.21,0,0,1,.83-.29h.71a1.21,1.21,0,0,1,.83.29,1,1,0,0,1,.33.76Zm-2.74-2.34v2.45a.59.59,0,0,0,.24.45.87.87,0,0,0,.58.2h.82a.87.87,0,0,0,.58-.2.59.59,0,0,0,.24-.45V31.44a.59.59,0,0,0-.24-.45.87.87,0,0,0-.58-.2H295a.87.87,0,0,0-.58.2A.59.59,0,0,0,294.18,31.44Z"/><path class="cls-1" d="M295.49,40.23a2.26,2.26,0,0,1-.94-.24q-.51-.24-.51-.44a.14.14,0,0,1,0-.1.12.12,0,0,1,.09,0l.21.13a2.82,2.82,0,0,0,.49.27,1.53,1.53,0,0,0,.62.13,1.17,1.17,0,0,0,.9-.35,1.38,1.38,0,0,0,.32-1,1.24,1.24,0,0,0-.11-.53.91.91,0,0,0-.28-.35,1.27,1.27,0,0,0-.34-.18,1,1,0,0,0-.33-.06h-1.58l.06-.82a1.14,1.14,0,0,1,.2-.66.7.7,0,0,1,.55-.18h1.64q.18,0,.18.15t-.18.14h-1.69a.37.37,0,0,0-.29.1.57.57,0,0,0-.12.34l0,.65h1.19a1.42,1.42,0,0,1,1,.39,1.31,1.31,0,0,1,.43,1,1.6,1.6,0,0,1-.43,1.18A1.47,1.47,0,0,1,295.49,40.23Z"/><path class="cls-1" d="M325.24,20.55a.83.83,0,0,1-.28.61,3,3,0,0,1-.68.48l-.8.43a2.36,2.36,0,0,0-.69.56,1.17,1.17,0,0,0-.28.76H325q.2,0,.2.15t-.2.14h-2.82v-.3a1.38,1.38,0,0,1,.15-.64,1.47,1.47,0,0,1,.39-.49,4.3,4.3,0,0,1,.54-.37l.58-.31.53-.29a1.47,1.47,0,0,0,.39-.33.64.64,0,0,0,.15-.41q0-.59-.25-.75a1.69,1.69,0,0,0-.88-.16h-.92a.41.41,0,0,0-.32.1.52.52,0,0,0-.09.34q0,.2-.15.2t-.14-.2a.84.84,0,0,1,.15-.56.64.64,0,0,1,.5-.17h1a3.24,3.24,0,0,1,.58,0,1.29,1.29,0,0,1,.44.17.72.72,0,0,1,.3.37A1.73,1.73,0,0,1,325.24,20.55Z"/><path class="cls-1" d="M288.63,45a1,1,0,0,1-.33.76,1.21,1.21,0,0,1-.83.29h-.71a1.21,1.21,0,0,1-.83-.29,1,1,0,0,1-.33-.76V42.79a1,1,0,0,1,.33-.76,1.21,1.21,0,0,1,.83-.29h.71a1.21,1.21,0,0,1,.83.29,1,1,0,0,1,.33.76Zm-2.74-2.34v2.45a.59.59,0,0,0,.24.45.87.87,0,0,0,.58.2h.82a.87.87,0,0,0,.58-.2.59.59,0,0,0,.24-.45V42.69a.59.59,0,0,0-.24-.45.87.87,0,0,0-.58-.2h-.82a.87.87,0,0,0-.58.2A.59.59,0,0,0,285.88,42.69Z"/><path class="cls-1" d="M290.21,46.15a2.26,2.26,0,0,1-.94-.24q-.51-.24-.51-.44a.14.14,0,0,1,0-.1.12.12,0,0,1,.09,0l.21.13a2.82,2.82,0,0,0,.49.27,1.53,1.53,0,0,0,.62.13,1.17,1.17,0,0,0,.9-.35,1.38,1.38,0,0,0,.32-1,1.24,1.24,0,0,0-.11-.53.91.91,0,0,0-.28-.35,1.27,1.27,0,0,0-.34-.18,1,1,0,0,0-.33-.06H288.8l.06-.82a1.14,1.14,0,0,1,.2-.66.7.7,0,0,1,.55-.18h1.64q.18,0,.18.15t-.18.14h-1.69a.37.37,0,0,0-.29.1.57.57,0,0,0-.12.34l0,.65h1.19a1.42,1.42,0,0,1,1,.39,1.31,1.31,0,0,1,.43,1,1.6,1.6,0,0,1-.43,1.18A1.47,1.47,0,0,1,290.21,46.15Z"/><path class="cls-1" d="M293.34,46.15a2.26,2.26,0,0,1-.94-.24q-.51-.24-.51-.44a.14.14,0,0,1,0-.1.12.12,0,0,1,.09,0l.21.13a2.82,2.82,0,0,0,.49.27,1.53,1.53,0,0,0,.62.13,1.17,1.17,0,0,0,.9-.35,1.38,1.38,0,0,0,.32-1,1.24,1.24,0,0,0-.11-.53.91.91,0,0,0-.28-.35,1.27,1.27,0,0,0-.34-.18,1,1,0,0,0-.33-.06h-1.58l.06-.82a1.14,1.14,0,0,1,.2-.66.7.7,0,0,1,.55-.18h1.64q.18,0,.18.15t-.18.14H292.7a.37.37,0,0,0-.29.1.57.57,0,0,0-.12.34l0,.65h1.19a1.42,1.42,0,0,1,1,.39,1.31,1.31,0,0,1,.43,1,1.6,1.6,0,0,1-.43,1.18A1.47,1.47,0,0,1,293.34,46.15Z"/><path class="cls-1" d="M298.76,30l-.23.23a.23.23,0,0,1-.17.09q-.13,0-.13-.12a.21.21,0,0,1,.08-.15l.42-.43a.24.24,0,0,1,.16-.08H299l.06,0a.15.15,0,0,1,0,.1V34q0,.18-.14.18t-.14-.18Z"/><path class="cls-1" d="M303.49,33.12a1,1,0,0,1-.33.76,1.21,1.21,0,0,1-.83.29h-.71a1.21,1.21,0,0,1-.83-.29,1,1,0,0,1-.33-.76V30.88a1,1,0,0,1,.33-.76,1.21,1.21,0,0,1,.83-.29h.71a1.21,1.21,0,0,1,.83.29,1,1,0,0,1,.33.76Zm-2.74-2.34v2.45a.59.59,0,0,0,.24.45.87.87,0,0,0,.58.2h.82a.87.87,0,0,0,.58-.2.59.59,0,0,0,.24-.45V30.78a.59.59,0,0,0-.24-.45.87.87,0,0,0-.58-.2h-.82a.87.87,0,0,0-.58.2A.59.59,0,0,0,300.74,30.78Z"/><rect class="cls-1" x="324.87" y="24.28" width="3.01" height="4.56"/><rect class="cls-1" x="290.5" y="35.76" width="3.01" height="4.56"/><path class="cls-1" d="M284.76,36l-.23.23a.23.23,0,0,1-.17.09q-.13,0-.13-.12a.21.21,0,0,1,.08-.15l.42-.43a.24.24,0,0,1,.16-.08H285l.06,0a.15.15,0,0,1,0,.1V40q0,.18-.14.18t-.14-.18Z"/><path class="cls-1" d="M287.89,36l-.23.23a.23.23,0,0,1-.17.09q-.13,0-.13-.12a.21.21,0,0,1,.08-.15l.42-.43a.24.24,0,0,1,.16-.08h.06l.06,0a.15.15,0,0,1,0,.1V40q0,.18-.14.18t-.14-.18Z"/><rect class="cls-1" x="281.76" y="46.9" width="3.01" height="4.56"/><path class="cls-1" d="M291.1,47.25l-.23.23a.23.23,0,0,1-.17.09q-.13,0-.13-.12a.21.21,0,0,1,.08-.15l.42-.43a.24.24,0,0,1,.16-.08h.06l.06,0a.15.15,0,0,1,0,.1v4.38q0,.18-.14.18t-.14-.18Z"/><path class="cls-1" d="M294.23,47.25l-.23.23a.23.23,0,0,1-.17.09q-.13,0-.13-.12a.21.21,0,0,1,.08-.15l.42-.43a.24.24,0,0,1,.16-.08h.06l.06,0a.15.15,0,0,1,0,.1v4.38q0,.18-.14.18t-.14-.18Z"/><rect class="cls-1" x="286.16" y="46.9" width="3.01" height="4.56"/><path class="cls-1" d="M282.25,53l-.23.23a.23.23,0,0,1-.17.09q-.13,0-.13-.12a.21.21,0,0,1,.08-.15l.42-.43a.24.24,0,0,1,.16-.08h.06l.06,0a.15.15,0,0,1,0,.1v4.38q0,.18-.14.18t-.14-.18Z"/><path class="cls-1" d="M285.38,53l-.23.23a.23.23,0,0,1-.17.09q-.13,0-.13-.12a.21.21,0,0,1,.08-.15l.42-.43a.24.24,0,0,1,.16-.08h.06l.06,0a.15.15,0,0,1,0,.1v4.38q0,.18-.14.18t-.14-.18Z"/><path class="cls-1" d="M289.79,54.07a.83.83,0,0,1-.28.61,3,3,0,0,1-.68.48l-.8.43a2.36,2.36,0,0,0-.69.56,1.17,1.17,0,0,0-.28.76h2.53q.2,0,.2.15t-.2.14h-2.82v-.3a1.39,1.39,0,0,1,.15-.64,1.48,1.48,0,0,1,.39-.49,4.3,4.3,0,0,1,.54-.37l.58-.31.53-.29a1.48,1.48,0,0,0,.39-.33.64.64,0,0,0,.15-.41q0-.59-.25-.75a1.69,1.69,0,0,0-.88-.16h-.92a.41.41,0,0,0-.32.1.52.52,0,0,0-.09.34q0,.2-.15.2t-.14-.2a.84.84,0,0,1,.15-.56.64.64,0,0,1,.5-.17h1a3.24,3.24,0,0,1,.58,0,1.29,1.29,0,0,1,.44.17.72.72,0,0,1,.3.37A1.74,1.74,0,0,1,289.79,54.07Z"/><path class="cls-1" d="M291.1,53l-.23.23a.23.23,0,0,1-.17.09q-.13,0-.13-.12a.21.21,0,0,1,.08-.15l.42-.43a.24.24,0,0,1,.16-.08h.06l.06,0a.15.15,0,0,1,0,.1v4.38q0,.18-.14.18t-.14-.18Z"/><path class="cls-1" d="M294.24,53l-.23.23a.23.23,0,0,1-.17.09q-.13,0-.13-.12a.21.21,0,0,1,.08-.15l.42-.43a.24.24,0,0,1,.16-.08h.06l.06,0a.15.15,0,0,1,0,.1v4.38q0,.18-.14.18t-.14-.18Z"/><path class="cls-1" d="M284.76,61.68a1,1,0,0,1-.33.76,1.21,1.21,0,0,1-.83.29h-.71a1.21,1.21,0,0,1-.83-.29,1,1,0,0,1-.33-.76V59.44a1,1,0,0,1,.33-.76,1.21,1.21,0,0,1,.83-.29h.71a1.21,1.21,0,0,1,.83.29,1,1,0,0,1,.33.76ZM282,59.34v2.45a.59.59,0,0,0,.24.45.87.87,0,0,0,.58.2h.82a.87.87,0,0,0,.58-.2.59.59,0,0,0,.24-.45V59.34a.59.59,0,0,0-.24-.45.87.87,0,0,0-.58-.2h-.82a.87.87,0,0,0-.58.2A.59.59,0,0,0,282,59.34Z"/><path class="cls-1" d="M287.89,61.68a1,1,0,0,1-.33.76,1.21,1.21,0,0,1-.83.29H286a1.21,1.21,0,0,1-.83-.29,1,1,0,0,1-.33-.76V59.44a1,1,0,0,1,.33-.76,1.21,1.21,0,0,1,.83-.29h.71a1.21,1.21,0,0,1,.83.29,1,1,0,0,1,.33.76Zm-2.74-2.34v2.45a.59.59,0,0,0,.24.45.87.87,0,0,0,.58.2h.82a.87.87,0,0,0,.58-.2.59.59,0,0,0,.24-.45V59.34a.59.59,0,0,0-.24-.45.87.87,0,0,0-.58-.2H286a.87.87,0,0,0-.58.2A.59.59,0,0,0,285.14,59.34Z"/><path class="cls-1" d="M291,61.68a1,1,0,0,1-.33.76,1.21,1.21,0,0,1-.83.29h-.71a1.21,1.21,0,0,1-.83-.29,1,1,0,0,1-.33-.76V59.44a1,1,0,0,1,.33-.76,1.21,1.21,0,0,1,.83-.29h.71a1.21,1.21,0,0,1,.83.29,1,1,0,0,1,.33.76Zm-2.74-2.34v2.45a.59.59,0,0,0,.24.45.87.87,0,0,0,.58.2h.82a.87.87,0,0,0,.58-.2.59.59,0,0,0,.24-.45V59.34a.59.59,0,0,0-.24-.45.87.87,0,0,0-.58-.2h-.82a.87.87,0,0,0-.58.2A.59.59,0,0,0,288.28,59.34Z"/><rect class="cls-1" x="291.67" y="58.17" width="3.01" height="4.56"/><path class="cls-1" d="M287,63.66l-.23.23a.23.23,0,0,1-.17.09q-.13,0-.13-.12a.21.21,0,0,1,.08-.15l.42-.43a.24.24,0,0,1,.16-.08h.06l.06,0a.15.15,0,0,1,0,.1v4.38q0,.18-.14.18t-.14-.18Z"/><path class="cls-1" d="M289.85,67.93a2.26,2.26,0,0,1-.94-.24q-.51-.24-.51-.44a.14.14,0,0,1,0-.1.12.12,0,0,1,.09,0l.21.13a2.81,2.81,0,0,0,.49.27,1.53,1.53,0,0,0,.62.13,1.17,1.17,0,0,0,.9-.35,1.38,1.38,0,0,0,.32-1,1.24,1.24,0,0,0-.11-.53.91.91,0,0,0-.28-.36,1.27,1.27,0,0,0-.34-.18,1,1,0,0,0-.33-.06h-1.58l.06-.82a1.14,1.14,0,0,1,.2-.66.7.7,0,0,1,.55-.18h1.64q.18,0,.18.15t-.18.14h-1.69a.37.37,0,0,0-.29.1.57.57,0,0,0-.12.34l0,.65H290a1.42,1.42,0,0,1,1,.39,1.31,1.31,0,0,1,.43,1,1.6,1.6,0,0,1-.43,1.18A1.47,1.47,0,0,1,289.85,67.93Z"/><path class="cls-1" d="M294.69,66.81a1,1,0,0,1-.33.76,1.21,1.21,0,0,1-.83.29h-.71a1.21,1.21,0,0,1-.83-.29,1,1,0,0,1-.33-.76V64.57a1,1,0,0,1,.33-.76,1.21,1.21,0,0,1,.83-.29h.71a1.21,1.21,0,0,1,.83.29,1,1,0,0,1,.33.76Zm-2.74-2.34v2.45a.59.59,0,0,0,.24.45.87.87,0,0,0,.58.2h.82a.87.87,0,0,0,.58-.2.59.59,0,0,0,.24-.45V64.47a.59.59,0,0,0-.24-.45.87.87,0,0,0-.58-.2h-.82a.87.87,0,0,0-.58.2A.59.59,0,0,0,291.94,64.47Z"/><path class="cls-1" d="M316.5,27.59l-.23.23a.23.23,0,0,1-.17.09q-.13,0-.13-.12a.21.21,0,0,1,.08-.15l.42-.43a.24.24,0,0,1,.16-.08h.06l.06,0a.15.15,0,0,1,0,.1v4.38q0,.18-.14.18t-.14-.18Z"/><path class="cls-1" d="M319.32,31.85a2.26,2.26,0,0,1-.94-.24q-.51-.24-.51-.44a.14.14,0,0,1,0-.1.12.12,0,0,1,.09,0l.21.13a2.82,2.82,0,0,0,.49.27,1.53,1.53,0,0,0,.62.13,1.17,1.17,0,0,0,.9-.35,1.38,1.38,0,0,0,.32-1,1.24,1.24,0,0,0-.11-.53.91.91,0,0,0-.28-.35,1.27,1.27,0,0,0-.34-.18,1,1,0,0,0-.33-.06h-1.58l.06-.82a1.14,1.14,0,0,1,.2-.66.7.7,0,0,1,.55-.18h1.64q.18,0,.18.15t-.18.14h-1.69a.37.37,0,0,0-.29.1.57.57,0,0,0-.12.34l0,.65h1.19a1.42,1.42,0,0,1,1,.39,1.31,1.31,0,0,1,.43,1,1.6,1.6,0,0,1-.43,1.18A1.47,1.47,0,0,1,319.32,31.85Z"/><path class="cls-1" d="M324.15,30.74a1,1,0,0,1-.33.76,1.21,1.21,0,0,1-.83.29h-.71a1.21,1.21,0,0,1-.83-.29,1,1,0,0,1-.33-.76V28.5a1,1,0,0,1,.33-.76,1.21,1.21,0,0,1,.83-.29H323a1.21,1.21,0,0,1,.83.29,1,1,0,0,1,.33.76Zm-2.74-2.34v2.45a.59.59,0,0,0,.24.45.87.87,0,0,0,.58.2H323a.87.87,0,0,0,.58-.2.59.59,0,0,0,.24-.45V28.4a.59.59,0,0,0-.24-.45.87.87,0,0,0-.58-.2h-.82a.87.87,0,0,0-.58.2A.59.59,0,0,0,321.41,28.4Z"/><path class="cls-1" d="M283.7,69.48l-.23.23a.23.23,0,0,1-.17.09q-.13,0-.13-.12a.21.21,0,0,1,.08-.15l.42-.43a.24.24,0,0,1,.16-.08h.06l.06,0a.15.15,0,0,1,0,.1v4.38q0,.18-.14.18t-.14-.18Z"/><path class="cls-1" d="M286.35,69.48l-.23.23a.23.23,0,0,1-.17.09q-.13,0-.13-.12a.21.21,0,0,1,.08-.15l.42-.43a.24.24,0,0,1,.16-.08h.06l.06,0a.15.15,0,0,1,0,.1v4.38q0,.18-.14.18t-.14-.18Z"/><path class="cls-1" d="M291.62,69.48l-.23.23a.23.23,0,0,1-.17.09q-.13,0-.13-.12a.21.21,0,0,1,.08-.15l.42-.43a.24.24,0,0,1,.16-.08h.06l.06,0a.15.15,0,0,1,0,.1v4.38q0,.18-.14.18t-.14-.18Z"/><path class="cls-1" d="M296.14,72.63a1,1,0,0,1-.33.76,1.21,1.21,0,0,1-.83.29h-.71a1.21,1.21,0,0,1-.83-.29,1,1,0,0,1-.33-.76V70.39a1,1,0,0,1,.33-.76,1.21,1.21,0,0,1,.83-.29H295a1.21,1.21,0,0,1,.83.29,1,1,0,0,1,.33.76Zm-2.74-2.34v2.45a.59.59,0,0,0,.24.45.87.87,0,0,0,.58.2H295a.87.87,0,0,0,.58-.2.59.59,0,0,0,.24-.45V70.29a.59.59,0,0,0-.24-.45.87.87,0,0,0-.58-.2h-.82a.87.87,0,0,0-.58.2A.59.59,0,0,0,293.4,70.29Z"/><rect class="cls-1" x="287.66" y="69.27" width="3.01" height="4.56"/><rect class="cls-1" x="281.76" y="63.31" width="3.01" height="4.56"/><path class="cls-1" d="M299.57,75.68a.83.83,0,0,1-.28.61,3,3,0,0,1-.68.48l-.8.43a2.36,2.36,0,0,0-.69.56,1.17,1.17,0,0,0-.28.76h2.53q.2,0,.2.15t-.2.14h-2.82v-.3a1.39,1.39,0,0,1,.15-.64,1.48,1.48,0,0,1,.39-.49,4.34,4.34,0,0,1,.54-.36l.58-.31q.29-.14.53-.29a1.47,1.47,0,0,0,.39-.33.64.64,0,0,0,.15-.41q0-.59-.25-.75a1.69,1.69,0,0,0-.88-.16h-.92a.41.41,0,0,0-.32.1.52.52,0,0,0-.09.34q0,.2-.15.2t-.14-.2a.84.84,0,0,1,.15-.56.64.64,0,0,1,.5-.17h1a3.24,3.24,0,0,1,.58,0,1.29,1.29,0,0,1,.44.17.72.72,0,0,1,.3.37A1.73,1.73,0,0,1,299.57,75.68Z"/><path class="cls-1" d="M288.87,77.89a1,1,0,0,1-.33.76,1.21,1.21,0,0,1-.83.29H287a1.21,1.21,0,0,1-.83-.29,1,1,0,0,1-.33-.76V75.65a1,1,0,0,1,.33-.76,1.21,1.21,0,0,1,.83-.29h.71a1.21,1.21,0,0,1,.83.29,1,1,0,0,1,.33.76Zm-2.74-2.34V78a.59.59,0,0,0,.24.45.87.87,0,0,0,.58.2h.82a.87.87,0,0,0,.58-.2.59.59,0,0,0,.24-.45V75.54a.59.59,0,0,0-.24-.45.87.87,0,0,0-.58-.2h-.82a.87.87,0,0,0-.58.2A.59.59,0,0,0,286.13,75.54Z"/><path class="cls-1" d="M290.45,79a2.26,2.26,0,0,1-.94-.24q-.51-.24-.51-.44a.14.14,0,0,1,0-.1.12.12,0,0,1,.09,0l.21.13a2.84,2.84,0,0,0,.49.27,1.53,1.53,0,0,0,.62.13,1.17,1.17,0,0,0,.9-.35,1.38,1.38,0,0,0,.32-1,1.24,1.24,0,0,0-.11-.53.91.91,0,0,0-.28-.35,1.26,1.26,0,0,0-.34-.18,1,1,0,0,0-.33-.06H289l.06-.82a1.14,1.14,0,0,1,.2-.66.7.7,0,0,1,.55-.18h1.64q.18,0,.18.15c0,.09-.06.14-.18.14h-1.69a.37.37,0,0,0-.29.1.57.57,0,0,0-.12.34l0,.65h1.19a1.42,1.42,0,0,1,1,.39,1.31,1.31,0,0,1,.43,1,1.6,1.6,0,0,1-.43,1.18A1.47,1.47,0,0,1,290.45,79Z"/><path class="cls-1" d="M293.59,79a2.26,2.26,0,0,1-.94-.24q-.51-.24-.51-.44a.14.14,0,0,1,0-.1.12.12,0,0,1,.09,0l.21.13a2.84,2.84,0,0,0,.49.27,1.53,1.53,0,0,0,.62.13,1.17,1.17,0,0,0,.9-.35,1.38,1.38,0,0,0,.32-1,1.24,1.24,0,0,0-.11-.53.91.91,0,0,0-.28-.35,1.26,1.26,0,0,0-.34-.18,1,1,0,0,0-.33-.06h-1.58l.06-.82a1.14,1.14,0,0,1,.2-.66.7.7,0,0,1,.55-.18h1.64q.18,0,.18.15c0,.09-.06.14-.18.14h-1.69a.37.37,0,0,0-.29.1.57.57,0,0,0-.12.34l0,.65h1.19a1.42,1.42,0,0,1,1,.39,1.31,1.31,0,0,1,.43,1,1.6,1.6,0,0,1-.43,1.18A1.47,1.47,0,0,1,293.59,79Z"/><path class="cls-1" d="M302.29,83.09a1,1,0,0,1-.33.76,1.21,1.21,0,0,1-.83.29h-.71a1.2,1.2,0,0,1-.83-.29,1,1,0,0,1-.33-.76V80.85a1,1,0,0,1,.33-.76,1.21,1.21,0,0,1,.83-.29h.71a1.21,1.21,0,0,1,.83.29,1,1,0,0,1,.33.76Zm-2.74-2.34V83.2a.59.59,0,0,0,.24.45.87.87,0,0,0,.58.2h.82a.87.87,0,0,0,.58-.2.59.59,0,0,0,.24-.45V80.75a.59.59,0,0,0-.24-.45.87.87,0,0,0-.58-.2h-.82a.87.87,0,0,0-.58.2A.59.59,0,0,0,299.54,80.75Z"/><path class="cls-1" d="M305.42,83.09a1,1,0,0,1-.33.76,1.21,1.21,0,0,1-.83.29h-.71a1.2,1.2,0,0,1-.83-.29,1,1,0,0,1-.33-.76V80.85a1,1,0,0,1,.33-.76,1.21,1.21,0,0,1,.83-.29h.71a1.21,1.21,0,0,1,.83.29,1,1,0,0,1,.33.76Zm-2.74-2.34V83.2a.59.59,0,0,0,.24.45.87.87,0,0,0,.58.2h.82a.87.87,0,0,0,.58-.2.59.59,0,0,0,.24-.45V80.75a.59.59,0,0,0-.24-.45.87.87,0,0,0-.58-.2h-.82a.87.87,0,0,0-.58.2A.59.59,0,0,0,302.67,80.75Z"/><path class="cls-1" d="M308.55,83.09a1,1,0,0,1-.33.76,1.21,1.21,0,0,1-.83.29h-.71a1.2,1.2,0,0,1-.83-.29,1,1,0,0,1-.33-.76V80.85a1,1,0,0,1,.33-.76,1.21,1.21,0,0,1,.83-.29h.71a1.21,1.21,0,0,1,.83.29,1,1,0,0,1,.33.76Zm-2.74-2.34V83.2a.59.59,0,0,0,.24.45.87.87,0,0,0,.58.2h.82a.87.87,0,0,0,.58-.2.59.59,0,0,0,.24-.45V80.75a.59.59,0,0,0-.24-.45.87.87,0,0,0-.58-.2h-.82a.87.87,0,0,0-.58.2A.59.59,0,0,0,305.81,80.75Z"/><rect class="cls-1" x="295.74" y="79.58" width="3.01" height="4.56"/><path class="cls-1" d="M292,79.93l-.23.23a.23.23,0,0,1-.17.09q-.13,0-.13-.12a.21.21,0,0,1,.08-.15l.42-.43a.24.24,0,0,1,.16-.08h.06l.06,0a.15.15,0,0,1,0,.1V84c0,.12,0,.18-.14.18S292,84.12,292,84Z"/><path class="cls-1" d="M294.63,79.93l-.23.23a.23.23,0,0,1-.17.09q-.13,0-.13-.12a.21.21,0,0,1,.08-.15l.42-.43a.24.24,0,0,1,.16-.08h.06l.06,0a.15.15,0,0,1,0,.1V84c0,.12,0,.18-.14.18s-.14-.06-.14-.18Z"/><path class="cls-1" d="M299.57,88.1a1,1,0,0,1-.33.76,1.21,1.21,0,0,1-.83.29h-.71a1.21,1.21,0,0,1-.83-.29,1,1,0,0,1-.33-.76V85.87a1,1,0,0,1,.33-.76,1.21,1.21,0,0,1,.83-.29h.71a1.21,1.21,0,0,1,.83.29,1,1,0,0,1,.33.76Zm-2.74-2.34v2.45a.59.59,0,0,0,.24.45.87.87,0,0,0,.58.2h.82a.87.87,0,0,0,.58-.2.59.59,0,0,0,.24-.45V85.76a.59.59,0,0,0-.24-.45.87.87,0,0,0-.58-.2h-.82a.87.87,0,0,0-.58.2A.59.59,0,0,0,296.83,85.76Z"/><path class="cls-1" d="M301.15,89.22a2.26,2.26,0,0,1-.94-.24q-.51-.24-.51-.44a.14.14,0,0,1,0-.1.12.12,0,0,1,.09,0l.21.13a2.84,2.84,0,0,0,.49.27,1.53,1.53,0,0,0,.62.13,1.17,1.17,0,0,0,.9-.35,1.38,1.38,0,0,0,.32-1,1.24,1.24,0,0,0-.11-.53.91.91,0,0,0-.28-.35,1.26,1.26,0,0,0-.34-.18,1,1,0,0,0-.33-.06h-1.58l.06-.82A1.14,1.14,0,0,1,300,85a.7.7,0,0,1,.55-.18h1.64q.18,0,.18.15c0,.09-.06.14-.18.14h-1.69a.37.37,0,0,0-.29.1.57.57,0,0,0-.12.34l0,.65h1.19a1.42,1.42,0,0,1,1,.39,1.31,1.31,0,0,1,.43,1,1.6,1.6,0,0,1-.43,1.18A1.47,1.47,0,0,1,301.15,89.22Z"/><path class="cls-1" d="M304.29,89.22a2.26,2.26,0,0,1-.94-.24q-.51-.24-.51-.44a.14.14,0,0,1,0-.1.12.12,0,0,1,.09,0l.21.13a2.84,2.84,0,0,0,.49.27,1.53,1.53,0,0,0,.62.13,1.17,1.17,0,0,0,.9-.35,1.38,1.38,0,0,0,.32-1,1.24,1.24,0,0,0-.11-.53.91.91,0,0,0-.28-.35,1.26,1.26,0,0,0-.34-.18,1,1,0,0,0-.33-.06h-1.58l.06-.82a1.14,1.14,0,0,1,.2-.66.7.7,0,0,1,.55-.18h1.64q.18,0,.18.15c0,.09-.06.14-.18.14h-1.69a.37.37,0,0,0-.29.1.57.57,0,0,0-.12.34l0,.65h1.19a1.42,1.42,0,0,1,1,.39,1.31,1.31,0,0,1,.43,1,1.6,1.6,0,0,1-.43,1.18A1.47,1.47,0,0,1,304.29,89.22Z"/><rect class="cls-1" x="308.9" y="79.58" width="3.01" height="4.56"/><path class="cls-1" d="M306.69,84.95l-.23.23a.23.23,0,0,1-.17.09q-.13,0-.13-.12a.21.21,0,0,1,.08-.15l.42-.43a.24.24,0,0,1,.16-.08h.06l.06,0a.15.15,0,0,1,0,.1V89q0,.18-.14.18t-.14-.18Z"/><path class="cls-1" d="M309.34,84.95l-.23.23a.23.23,0,0,1-.17.09q-.13,0-.13-.12a.21.21,0,0,1,.08-.15l.42-.43a.24.24,0,0,1,.16-.08h.06l.06,0a.15.15,0,0,1,0,.1V89q0,.18-.14.18t-.14-.18Z"/><path class="cls-1" d="M313.12,91.43a1,1,0,0,1-.33.76,1.21,1.21,0,0,1-.83.29h-.71a1.21,1.21,0,0,1-.83-.29,1,1,0,0,1-.33-.76V89.19a1,1,0,0,1,.33-.76,1.21,1.21,0,0,1,.83-.29H312a1.21,1.21,0,0,1,.83.29,1,1,0,0,1,.33.76Zm-2.74-2.34v2.45a.59.59,0,0,0,.24.45.87.87,0,0,0,.58.2H312a.87.87,0,0,0,.58-.2.59.59,0,0,0,.24-.45V89.08a.59.59,0,0,0-.24-.45.87.87,0,0,0-.58-.2h-.82a.87.87,0,0,0-.58.2A.59.59,0,0,0,310.38,89.08Z"/><path class="cls-1" d="M316.25,91.43a1,1,0,0,1-.33.76,1.21,1.21,0,0,1-.83.29h-.71a1.21,1.21,0,0,1-.83-.29,1,1,0,0,1-.33-.76V89.19a1,1,0,0,1,.33-.76,1.21,1.21,0,0,1,.83-.29h.71a1.21,1.21,0,0,1,.83.29,1,1,0,0,1,.33.76Zm-2.74-2.34v2.45a.59.59,0,0,0,.24.45.87.87,0,0,0,.58.2h.82a.87.87,0,0,0,.58-.2.59.59,0,0,0,.24-.45V89.08a.59.59,0,0,0-.24-.45.87.87,0,0,0-.58-.2h-.82a.87.87,0,0,0-.58.2A.59.59,0,0,0,313.51,89.08Z"/><path class="cls-1" d="M319.38,91.43a1,1,0,0,1-.33.76,1.21,1.21,0,0,1-.83.29h-.71a1.21,1.21,0,0,1-.83-.29,1,1,0,0,1-.33-.76V89.19a1,1,0,0,1,.33-.76,1.21,1.21,0,0,1,.83-.29h.71a1.21,1.21,0,0,1,.83.29,1,1,0,0,1,.33.76Zm-2.74-2.34v2.45a.59.59,0,0,0,.24.45.87.87,0,0,0,.58.2h.82a.87.87,0,0,0,.58-.2.59.59,0,0,0,.24-.45V89.08a.59.59,0,0,0-.24-.45.87.87,0,0,0-.58-.2h-.82a.87.87,0,0,0-.58.2A.59.59,0,0,0,316.64,89.08Z"/><path class="cls-1" d="M315.44,84.46a.83.83,0,0,1-.28.61,3,3,0,0,1-.68.48l-.8.43a2.36,2.36,0,0,0-.69.56,1.17,1.17,0,0,0-.28.76h2.53q.2,0,.2.15t-.2.14h-2.82v-.3a1.39,1.39,0,0,1,.15-.64,1.48,1.48,0,0,1,.39-.49,4.34,4.34,0,0,1,.54-.36l.58-.31q.29-.14.53-.29a1.47,1.47,0,0,0,.39-.33.64.64,0,0,0,.15-.41q0-.59-.25-.75a1.69,1.69,0,0,0-.88-.16h-.92a.41.41,0,0,0-.32.1.52.52,0,0,0-.09.34q0,.2-.15.2t-.14-.2a.84.84,0,0,1,.15-.56.64.64,0,0,1,.5-.17h1a3.24,3.24,0,0,1,.58,0,1.29,1.29,0,0,1,.44.17.72.72,0,0,1,.3.37A1.73,1.73,0,0,1,315.44,84.46Z"/><rect class="cls-1" x="316.06" y="83.04" width="3.01" height="4.56"/><path class="cls-1" d="M319.89,79.93l-.23.23a.23.23,0,0,1-.17.09q-.13,0-.13-.12a.21.21,0,0,1,.08-.15l.42-.43a.24.24,0,0,1,.16-.08h.06l.06,0a.15.15,0,0,1,0,.1V84c0,.12,0,.18-.14.18s-.14-.06-.14-.18Z"/><path class="cls-1" d="M322.71,84.2a2.26,2.26,0,0,1-.94-.24q-.51-.24-.51-.44a.14.14,0,0,1,0-.1.12.12,0,0,1,.09,0l.21.13a2.81,2.81,0,0,0,.49.27,1.53,1.53,0,0,0,.62.13,1.17,1.17,0,0,0,.9-.35,1.38,1.38,0,0,0,.32-1,1.23,1.23,0,0,0-.11-.53.9.9,0,0,0-.28-.35,1.28,1.28,0,0,0-.34-.18,1,1,0,0,0-.33-.06H321.3l.06-.82a1.14,1.14,0,0,1,.2-.66.7.7,0,0,1,.55-.18h1.64q.18,0,.18.15c0,.09-.06.14-.18.14h-1.69a.37.37,0,0,0-.29.1.57.57,0,0,0-.12.34l0,.65h1.19a1.42,1.42,0,0,1,1,.39,1.31,1.31,0,0,1,.43,1,1.6,1.6,0,0,1-.43,1.18A1.47,1.47,0,0,1,322.71,84.2Z"/><path class="cls-1" d="M327.54,83.09a1,1,0,0,1-.33.76,1.21,1.21,0,0,1-.83.29h-.71a1.21,1.21,0,0,1-.83-.29,1,1,0,0,1-.33-.76V80.85a1,1,0,0,1,.33-.76,1.21,1.21,0,0,1,.83-.29h.71a1.21,1.21,0,0,1,.83.29,1,1,0,0,1,.33.76Zm-2.74-2.34V83.2a.59.59,0,0,0,.24.45.87.87,0,0,0,.58.2h.82a.87.87,0,0,0,.58-.2.59.59,0,0,0,.24-.45V80.74a.59.59,0,0,0-.24-.45.87.87,0,0,0-.58-.2h-.82a.87.87,0,0,0-.58.2A.59.59,0,0,0,324.8,80.74Z"/><path class="cls-1" d="M319.89,85.57l-.23.23a.23.23,0,0,1-.17.09q-.13,0-.13-.12a.21.21,0,0,1,.08-.15l.42-.43a.24.24,0,0,1,.16-.08h.06l.06,0a.15.15,0,0,1,0,.1v4.38q0,.18-.14.18t-.14-.18Z"/><path class="cls-1" d="M322.54,85.57l-.23.23a.23.23,0,0,1-.17.09c-.09,0-.13,0-.13-.12a.21.21,0,0,1,.08-.15l.42-.43a.24.24,0,0,1,.16-.08h.06l.06,0a.15.15,0,0,1,0,.1v4.38q0,.18-.14.18t-.14-.18Z"/><rect class="cls-1" x="323.37" y="87.92" width="3.01" height="4.56"/><path class="cls-1" d="M295.54,28.48a1,1,0,0,1-.33.76,1.21,1.21,0,0,1-.83.29h-.71a1.21,1.21,0,0,1-.83-.29,1,1,0,0,1-.33-.76V26.24a1,1,0,0,1,.33-.76,1.21,1.21,0,0,1,.83-.29h.71a1.21,1.21,0,0,1,.83.29,1,1,0,0,1,.33.76Zm-2.74-2.34v2.45A.59.59,0,0,0,293,29a.87.87,0,0,0,.58.2h.82A.87.87,0,0,0,295,29a.59.59,0,0,0,.24-.45V26.14a.59.59,0,0,0-.24-.45.87.87,0,0,0-.58-.2h-.82a.87.87,0,0,0-.58.2A.59.59,0,0,0,292.79,26.14Z"/><path class="cls-1" d="M297.12,29.59a2.26,2.26,0,0,1-.94-.24q-.51-.24-.51-.44a.14.14,0,0,1,0-.1.12.12,0,0,1,.09,0l.21.13a2.82,2.82,0,0,0,.49.27,1.53,1.53,0,0,0,.62.13A1.17,1.17,0,0,0,298,29a1.38,1.38,0,0,0,.32-1,1.24,1.24,0,0,0-.11-.53.91.91,0,0,0-.28-.35,1.27,1.27,0,0,0-.34-.18,1,1,0,0,0-.33-.06h-1.58l.06-.82a1.14,1.14,0,0,1,.2-.66.7.7,0,0,1,.55-.18h1.64q.18,0,.18.15t-.18.14h-1.69a.37.37,0,0,0-.29.1.57.57,0,0,0-.12.34l0,.65h1.19a1.42,1.42,0,0,1,1,.39,1.31,1.31,0,0,1,.43,1,1.6,1.6,0,0,1-.43,1.18A1.47,1.47,0,0,1,297.12,29.59Z"/><path class="cls-1" d="M300.25,29.59a2.26,2.26,0,0,1-.94-.24q-.51-.24-.51-.44a.14.14,0,0,1,0-.1.12.12,0,0,1,.09,0l.21.13a2.82,2.82,0,0,0,.49.27,1.53,1.53,0,0,0,.62.13,1.17,1.17,0,0,0,.9-.35,1.38,1.38,0,0,0,.32-1,1.24,1.24,0,0,0-.11-.53.91.91,0,0,0-.28-.35,1.27,1.27,0,0,0-.34-.18,1,1,0,0,0-.33-.06h-1.58l.06-.82a1.14,1.14,0,0,1,.2-.66.7.7,0,0,1,.55-.18h1.64q.18,0,.18.15t-.18.14h-1.69a.37.37,0,0,0-.29.1.57.57,0,0,0-.12.34l0,.65h1.19a1.42,1.42,0,0,1,1,.39,1.31,1.31,0,0,1,.43,1,1.6,1.6,0,0,1-.43,1.18A1.47,1.47,0,0,1,300.25,29.59Z"/><path class="cls-1" d="M328.31,19.48l-.23.23a.23.23,0,0,1-.17.09q-.13,0-.13-.12a.21.21,0,0,1,.08-.15l.42-.43a.24.24,0,0,1,.16-.08h.06l.06,0a.15.15,0,0,1,0,.1v4.38c0,.12,0,.18-.14.18s-.14-.06-.14-.18Z"/><path class="cls-1" d="M331.45,19.48l-.23.23a.24.24,0,0,1-.17.09q-.13,0-.13-.12a.21.21,0,0,1,.08-.15l.42-.43a.24.24,0,0,1,.16-.08h.06l.06,0a.15.15,0,0,1,0,.1v4.38q0,.18-.14.18t-.14-.18Z"/><path class="cls-1" d="M331.41,31.2a1,1,0,0,1-.33.76,1.21,1.21,0,0,1-.83.29h-.71a1.21,1.21,0,0,1-.83-.29,1,1,0,0,1-.33-.76V29a1,1,0,0,1,.33-.76,1.21,1.21,0,0,1,.83-.29h.71a1.21,1.21,0,0,1,.83.29,1,1,0,0,1,.33.76Zm-2.74-2.34v2.45a.59.59,0,0,0,.24.45.87.87,0,0,0,.58.2h.82a.87.87,0,0,0,.58-.2.59.59,0,0,0,.24-.45V28.86a.59.59,0,0,0-.24-.45.87.87,0,0,0-.58-.2h-.82a.87.87,0,0,0-.58.2A.59.59,0,0,0,328.67,28.86Z"/><rect class="cls-1" x="334.59" y="19.84" width="3.01" height="4.56"/><path class="cls-1" d="M332.8,28.05l-.23.23a.24.24,0,0,1-.17.09q-.13,0-.13-.12a.21.21,0,0,1,.08-.15l.42-.43a.24.24,0,0,1,.16-.08H333l.06,0a.15.15,0,0,1,0,.1v4.38q0,.18-.14.18t-.14-.18Z"/><path class="cls-1" d="M335.93,28.05l-.23.23a.24.24,0,0,1-.17.09q-.13,0-.13-.12a.21.21,0,0,1,.08-.15l.42-.43a.24.24,0,0,1,.16-.08h.06l.06,0a.15.15,0,0,1,0,.1v4.38q0,.18-.14.18t-.14-.18Z"/><rect class="cls-1" x="337.88" y="29.51" width="3.01" height="4.56"/><path class="cls-1" d="M340.85,25.7a.83.83,0,0,1-.28.61,3,3,0,0,1-.68.48l-.8.43a2.36,2.36,0,0,0-.69.56,1.17,1.17,0,0,0-.28.76h2.53q.2,0,.2.15t-.2.14h-2.82v-.3a1.39,1.39,0,0,1,.15-.64,1.48,1.48,0,0,1,.39-.49,4.34,4.34,0,0,1,.54-.37l.58-.31.53-.29a1.47,1.47,0,0,0,.39-.33.64.64,0,0,0,.15-.41q0-.59-.25-.75a1.69,1.69,0,0,0-.88-.16h-.92a.41.41,0,0,0-.32.1.52.52,0,0,0-.09.34q0,.2-.15.2t-.14-.2a.84.84,0,0,1,.15-.56.64.64,0,0,1,.5-.17h1a3.24,3.24,0,0,1,.58,0,1.29,1.29,0,0,1,.44.17.72.72,0,0,1,.3.37A1.73,1.73,0,0,1,340.85,25.7Z"/><path class="cls-1" d="M345,31.2a1,1,0,0,1-.33.76,1.21,1.21,0,0,1-.83.29h-.71a1.21,1.21,0,0,1-.83-.29,1,1,0,0,1-.33-.76V29a1,1,0,0,1,.33-.76,1.21,1.21,0,0,1,.83-.29h.71a1.21,1.21,0,0,1,.83.29A1,1,0,0,1,345,29Zm-2.74-2.34v2.45a.59.59,0,0,0,.24.45.87.87,0,0,0,.58.2h.82a.87.87,0,0,0,.58-.2.59.59,0,0,0,.24-.45V28.86a.59.59,0,0,0-.24-.45.87.87,0,0,0-.58-.2h-.82a.87.87,0,0,0-.58.2A.59.59,0,0,0,342.25,28.86Z"/><path class="cls-1" d="M348.12,31.2a1,1,0,0,1-.33.76,1.21,1.21,0,0,1-.83.29h-.71a1.21,1.21,0,0,1-.83-.29,1,1,0,0,1-.33-.76V29a1,1,0,0,1,.33-.76,1.21,1.21,0,0,1,.83-.29H347a1.21,1.21,0,0,1,.83.29,1,1,0,0,1,.33.76Zm-2.74-2.34v2.45a.59.59,0,0,0,.24.45.87.87,0,0,0,.58.2H347a.87.87,0,0,0,.58-.2.59.59,0,0,0,.24-.45V28.86a.59.59,0,0,0-.24-.45.87.87,0,0,0-.58-.2h-.82a.87.87,0,0,0-.58.2A.59.59,0,0,0,345.38,28.86Z"/><path class="cls-1" d="M351.25,31.2a1,1,0,0,1-.33.76,1.21,1.21,0,0,1-.83.29h-.71a1.21,1.21,0,0,1-.83-.29,1,1,0,0,1-.33-.76V29a1,1,0,0,1,.33-.76,1.21,1.21,0,0,1,.83-.29h.71a1.21,1.21,0,0,1,.83.29,1,1,0,0,1,.33.76Zm-2.74-2.34v2.45a.59.59,0,0,0,.24.45.87.87,0,0,0,.58.2h.82a.87.87,0,0,0,.58-.2.59.59,0,0,0,.24-.45V28.86a.59.59,0,0,0-.24-.45.87.87,0,0,0-.58-.2h-.82a.87.87,0,0,0-.58.2A.59.59,0,0,0,348.51,28.86Z"/><path class="cls-1" d="M344.82,33.83l-.23.23a.24.24,0,0,1-.17.09q-.13,0-.13-.12a.21.21,0,0,1,.08-.15l.42-.43a.24.24,0,0,1,.16-.08H345l.06,0a.15.15,0,0,1,0,.1V37.9q0,.18-.14.18t-.14-.18Z"/><path class="cls-1" d="M347.64,38.1a2.26,2.26,0,0,1-.94-.24q-.51-.24-.51-.44a.14.14,0,0,1,0-.1.12.12,0,0,1,.09,0l.21.13a2.81,2.81,0,0,0,.49.27,1.52,1.52,0,0,0,.62.13,1.17,1.17,0,0,0,.9-.35,1.38,1.38,0,0,0,.32-1,1.23,1.23,0,0,0-.11-.53.91.91,0,0,0-.28-.35,1.26,1.26,0,0,0-.34-.18,1,1,0,0,0-.33-.06h-1.58l.06-.82a1.14,1.14,0,0,1,.2-.66.7.7,0,0,1,.55-.18h1.64q.18,0,.18.15t-.18.14H347a.37.37,0,0,0-.29.1.57.57,0,0,0-.12.34l0,.65h1.19a1.42,1.42,0,0,1,1,.39,1.31,1.31,0,0,1,.43,1,1.6,1.6,0,0,1-.43,1.18A1.47,1.47,0,0,1,347.64,38.1Z"/><path class="cls-1" d="M352.48,37a1,1,0,0,1-.33.76,1.21,1.21,0,0,1-.83.29h-.71a1.21,1.21,0,0,1-.83-.29,1,1,0,0,1-.33-.76V34.74a1,1,0,0,1,.33-.76,1.21,1.21,0,0,1,.83-.29h.71a1.21,1.21,0,0,1,.83.29,1,1,0,0,1,.33.76Zm-2.74-2.34v2.45a.59.59,0,0,0,.24.45.87.87,0,0,0,.58.2h.82a.87.87,0,0,0,.58-.2.59.59,0,0,0,.24-.45V34.64a.59.59,0,0,0-.24-.45.87.87,0,0,0-.58-.2h-.82a.87.87,0,0,0-.58.2A.59.59,0,0,0,349.73,34.64Z"/><rect class="cls-1" x="349.49" y="39.4" width="3.01" height="4.56"/><path class="cls-1" d="M346.16,45l-.23.23a.24.24,0,0,1-.17.09q-.13,0-.13-.12a.21.21,0,0,1,.08-.15l.42-.43a.24.24,0,0,1,.16-.08h.06l.06,0a.15.15,0,0,1,0,.1V49q0,.18-.14.18t-.14-.18Z"/><path class="cls-1" d="M348.81,45l-.23.23a.24.24,0,0,1-.17.09q-.13,0-.13-.12a.21.21,0,0,1,.08-.15l.42-.43a.24.24,0,0,1,.16-.08H349l.06,0a.15.15,0,0,1,0,.1V49q0,.18-.14.18t-.14-.18Z"/><path class="cls-1" d="M352.45,52.24a1,1,0,0,1-.33.76,1.21,1.21,0,0,1-.83.29h-.71a1.21,1.21,0,0,1-.83-.29,1,1,0,0,1-.33-.76V50a1,1,0,0,1,.33-.76,1.21,1.21,0,0,1,.83-.29h.71a1.21,1.21,0,0,1,.83.29,1,1,0,0,1,.33.76Zm-2.74-2.34v2.45a.59.59,0,0,0,.24.45.87.87,0,0,0,.58.2h.82a.87.87,0,0,0,.58-.2.59.59,0,0,0,.24-.45V49.89a.59.59,0,0,0-.24-.45.87.87,0,0,0-.58-.2h-.82a.87.87,0,0,0-.58.2A.59.59,0,0,0,349.7,49.89Z"/><path class="cls-1" d="M349,53.32a.83.83,0,0,1-.28.61,3,3,0,0,1-.68.48l-.8.43a2.36,2.36,0,0,0-.69.56,1.17,1.17,0,0,0-.28.76h2.53q.2,0,.2.15t-.2.14H346v-.3a1.39,1.39,0,0,1,.15-.64,1.49,1.49,0,0,1,.39-.49,4.36,4.36,0,0,1,.54-.36l.58-.31q.29-.14.53-.29a1.47,1.47,0,0,0,.39-.33.64.64,0,0,0,.15-.41q0-.59-.25-.75a1.69,1.69,0,0,0-.88-.16h-.92a.41.41,0,0,0-.32.1.52.52,0,0,0-.09.34q0,.2-.15.2t-.14-.2a.84.84,0,0,1,.15-.56.64.64,0,0,1,.5-.17h1a3.24,3.24,0,0,1,.58,0,1.29,1.29,0,0,1,.44.17.72.72,0,0,1,.3.37A1.73,1.73,0,0,1,349,53.32Z"/><rect class="cls-1" x="346.19" y="57.21" width="3.01" height="4.56"/><path class="cls-1" d="M350.9,61.83a2.26,2.26,0,0,1-.94-.24q-.51-.24-.51-.44a.14.14,0,0,1,0-.1.12.12,0,0,1,.09,0l.21.13a2.8,2.8,0,0,0,.49.27,1.52,1.52,0,0,0,.62.13,1.17,1.17,0,0,0,.9-.35,1.38,1.38,0,0,0,.32-1,1.23,1.23,0,0,0-.11-.53.91.91,0,0,0-.28-.36,1.26,1.26,0,0,0-.34-.18,1,1,0,0,0-.33-.06h-1.58l.06-.82a1.14,1.14,0,0,1,.2-.66.7.7,0,0,1,.55-.18h1.64q.18,0,.18.15c0,.09-.06.14-.18.14h-1.69a.37.37,0,0,0-.29.1.57.57,0,0,0-.12.34l0,.65H351a1.42,1.42,0,0,1,1,.39,1.31,1.31,0,0,1,.43,1A1.6,1.6,0,0,1,352,61.4,1.47,1.47,0,0,1,350.9,61.83Z"/><path class="cls-1" d="M347.49,67.27a2.26,2.26,0,0,1-.94-.24q-.51-.24-.51-.44a.14.14,0,0,1,0-.1.12.12,0,0,1,.09,0l.21.13a2.8,2.8,0,0,0,.49.27,1.52,1.52,0,0,0,.62.13,1.17,1.17,0,0,0,.9-.35,1.38,1.38,0,0,0,.32-1,1.23,1.23,0,0,0-.11-.53.91.91,0,0,0-.28-.36,1.27,1.27,0,0,0-.34-.18,1,1,0,0,0-.33-.06h-1.58l.06-.82a1.14,1.14,0,0,1,.2-.66.7.7,0,0,1,.55-.18h1.64q.18,0,.18.15t-.18.14h-1.69a.37.37,0,0,0-.29.1.57.57,0,0,0-.12.34l0,.65h1.19a1.42,1.42,0,0,1,1,.39,1.31,1.31,0,0,1,.43,1,1.6,1.6,0,0,1-.43,1.18A1.47,1.47,0,0,1,347.49,67.27Z"/><path class="cls-1" d="M352.33,66.16a1,1,0,0,1-.33.76,1.21,1.21,0,0,1-.83.29h-.71a1.21,1.21,0,0,1-.83-.29,1,1,0,0,1-.33-.76V63.92a1,1,0,0,1,.33-.76,1.21,1.21,0,0,1,.83-.29h.71a1.21,1.21,0,0,1,.83.29,1,1,0,0,1,.33.76Zm-2.74-2.34v2.45a.59.59,0,0,0,.24.45.87.87,0,0,0,.58.2h.82a.87.87,0,0,0,.58-.2.59.59,0,0,0,.24-.45V63.82a.59.59,0,0,0-.24-.45.87.87,0,0,0-.58-.2h-.82a.87.87,0,0,0-.58.2A.59.59,0,0,0,349.59,63.82Z"/><rect class="cls-1" x="349.49" y="67.86" width="3.01" height="4.56"/><path class="cls-1" d="M348.26,69.28a.83.83,0,0,1-.28.61,3,3,0,0,1-.68.48l-.8.43a2.36,2.36,0,0,0-.69.56,1.17,1.17,0,0,0-.28.76h2.53q.2,0,.2.15t-.2.14h-2.82v-.3a1.39,1.39,0,0,1,.15-.64,1.49,1.49,0,0,1,.39-.49,4.36,4.36,0,0,1,.54-.36l.58-.31q.29-.14.53-.29a1.47,1.47,0,0,0,.39-.33.64.64,0,0,0,.15-.41q0-.59-.25-.75a1.69,1.69,0,0,0-.88-.16h-.92a.41.41,0,0,0-.32.1.52.52,0,0,0-.09.34q0,.2-.15.2t-.14-.2a.84.84,0,0,1,.15-.56.64.64,0,0,1,.5-.17h1a3.24,3.24,0,0,1,.58,0,1.29,1.29,0,0,1,.44.17.72.72,0,0,1,.3.37A1.73,1.73,0,0,1,348.26,69.28Z"/><path class="cls-1" d="M346.41,76.57a1,1,0,0,1-.33.76,1.21,1.21,0,0,1-.83.29h-.71a1.21,1.21,0,0,1-.83-.29,1,1,0,0,1-.33-.76V74.33a1,1,0,0,1,.33-.76,1.21,1.21,0,0,1,.83-.29h.71a1.21,1.21,0,0,1,.83.29,1,1,0,0,1,.33.76Zm-2.74-2.34v2.45a.59.59,0,0,0,.24.45.87.87,0,0,0,.58.2h.82a.87.87,0,0,0,.58-.2.59.59,0,0,0,.24-.45V74.23a.59.59,0,0,0-.24-.45.87.87,0,0,0-.58-.2h-.82a.87.87,0,0,0-.58.2A.59.59,0,0,0,343.67,74.23Z"/><path class="cls-1" d="M349.55,76.57a1,1,0,0,1-.33.76,1.21,1.21,0,0,1-.83.29h-.71a1.21,1.21,0,0,1-.83-.29,1,1,0,0,1-.33-.76V74.33a1,1,0,0,1,.33-.76,1.21,1.21,0,0,1,.83-.29h.71a1.21,1.21,0,0,1,.83.29,1,1,0,0,1,.33.76Zm-2.74-2.34v2.45a.59.59,0,0,0,.24.45.87.87,0,0,0,.58.2h.82a.87.87,0,0,0,.58-.2.59.59,0,0,0,.24-.45V74.23a.59.59,0,0,0-.24-.45.87.87,0,0,0-.58-.2h-.82a.87.87,0,0,0-.58.2A.59.59,0,0,0,346.8,74.23Z"/><path class="cls-1" d="M352.68,76.57a1,1,0,0,1-.33.76,1.21,1.21,0,0,1-.83.29h-.71a1.21,1.21,0,0,1-.83-.29,1,1,0,0,1-.33-.76V74.33a1,1,0,0,1,.33-.76,1.21,1.21,0,0,1,.83-.29h.71a1.21,1.21,0,0,1,.83.29,1,1,0,0,1,.33.76Zm-2.74-2.34v2.45a.59.59,0,0,0,.24.45.87.87,0,0,0,.58.2h.82a.87.87,0,0,0,.58-.2.59.59,0,0,0,.24-.45V74.23a.59.59,0,0,0-.24-.45.87.87,0,0,0-.58-.2h-.82a.87.87,0,0,0-.58.2A.59.59,0,0,0,349.93,74.23Z"/><path class="cls-1" d="M336.53,78.27l-.23.23a.24.24,0,0,1-.17.09q-.13,0-.13-.12a.21.21,0,0,1,.08-.15l.42-.43a.24.24,0,0,1,.16-.08h.06l.06,0a.15.15,0,0,1,0,.1v4.38q0,.18-.14.18t-.14-.18Z"/><path class="cls-1" d="M339.35,82.54a2.26,2.26,0,0,1-.94-.24q-.51-.24-.51-.44a.14.14,0,0,1,0-.1.12.12,0,0,1,.09,0l.21.13a2.83,2.83,0,0,0,.49.27,1.52,1.52,0,0,0,.62.13,1.17,1.17,0,0,0,.9-.35,1.38,1.38,0,0,0,.32-1,1.24,1.24,0,0,0-.11-.53.91.91,0,0,0-.28-.35,1.26,1.26,0,0,0-.34-.18,1,1,0,0,0-.33-.06h-1.58L338,79a1.14,1.14,0,0,1,.2-.66.7.7,0,0,1,.55-.18h1.64q.18,0,.18.15c0,.09-.06.14-.18.14h-1.69a.37.37,0,0,0-.29.1.57.57,0,0,0-.12.34l0,.65h1.19a1.42,1.42,0,0,1,1,.39,1.31,1.31,0,0,1,.43,1,1.6,1.6,0,0,1-.43,1.18A1.47,1.47,0,0,1,339.35,82.54Z"/><path class="cls-1" d="M344.19,81.42a1,1,0,0,1-.33.76,1.21,1.21,0,0,1-.83.29h-.71a1.21,1.21,0,0,1-.83-.29,1,1,0,0,1-.33-.76V79.18a1,1,0,0,1,.33-.76,1.21,1.21,0,0,1,.83-.29H343a1.21,1.21,0,0,1,.83.29,1,1,0,0,1,.33.76Zm-2.74-2.34v2.45a.59.59,0,0,0,.24.45.87.87,0,0,0,.58.2h.82a.87.87,0,0,0,.58-.2.59.59,0,0,0,.24-.45V79.08a.59.59,0,0,0-.24-.45.87.87,0,0,0-.58-.2h-.82a.87.87,0,0,0-.58.2A.59.59,0,0,0,341.44,79.08Z"/><rect class="cls-1" x="346.19" y="78.49" width="3.01" height="4.56"/><path class="cls-1" d="M341.82,84.28l-.23.23a.23.23,0,0,1-.17.09q-.13,0-.13-.12a.21.21,0,0,1,.08-.15l.42-.43a.24.24,0,0,1,.16-.08H342l.06,0a.15.15,0,0,1,0,.1v4.38c0,.12,0,.18-.14.18s-.14-.06-.14-.18Z"/><path class="cls-1" d="M344.47,84.28l-.23.23a.23.23,0,0,1-.17.09q-.13,0-.13-.12a.21.21,0,0,1,.08-.15l.42-.43a.24.24,0,0,1,.16-.08h.06l.06,0a.15.15,0,0,1,0,.1v4.38c0,.12,0,.18-.14.18s-.14-.06-.14-.18Z"/><rect class="cls-1" x="327.01" y="87.92" width="3.01" height="4.56"/><path class="cls-1" d="M328.95,83.4l-.23.23a.23.23,0,0,1-.17.09c-.09,0-.13,0-.13-.12a.21.21,0,0,1,.08-.15l.42-.43a.24.24,0,0,1,.16-.08h.06l.06,0a.15.15,0,0,1,0,.1v4.38q0,.18-.14.18t-.14-.18Z"/><path class="cls-1" d="M331.6,83.4l-.23.23a.24.24,0,0,1-.17.09q-.13,0-.13-.12a.21.21,0,0,1,.08-.15l.42-.43a.24.24,0,0,1,.16-.08h.06l.06,0a.15.15,0,0,1,0,.1v4.38q0,.18-.14.18t-.14-.18Z"/><rect class="cls-1" x="332.31" y="79.58" width="3.01" height="4.56"/><path class="cls-1" d="M335.84,88.57a.83.83,0,0,1-.28.61,3,3,0,0,1-.68.48l-.8.43a2.36,2.36,0,0,0-.69.56,1.17,1.17,0,0,0-.28.76h2.53q.2,0,.2.15t-.2.14h-2.82v-.3a1.39,1.39,0,0,1,.15-.64,1.48,1.48,0,0,1,.39-.49,4.32,4.32,0,0,1,.54-.37l.58-.31.53-.29a1.48,1.48,0,0,0,.39-.33.64.64,0,0,0,.15-.41q0-.59-.25-.75a1.69,1.69,0,0,0-.88-.16h-.92a.41.41,0,0,0-.32.1.52.52,0,0,0-.09.34q0,.2-.15.2t-.14-.2a.84.84,0,0,1,.15-.56.64.64,0,0,1,.5-.17h1a3.24,3.24,0,0,1,.58,0,1.29,1.29,0,0,1,.44.17.72.72,0,0,1,.3.37A1.74,1.74,0,0,1,335.84,88.57Z"/><rect class="cls-1" x="337.31" y="86.21" width="3.01" height="4.56"/><rect class="cls-1" x="29.51" y="47.44" width="61.92" height="19.73"/></g></g></svg>