<svg xmlns="http://www.w3.org/2000/svg" viewBox="0 0 141.06 115.51"><defs><style>.cls-1{fill:#fff;}.cls-2{fill:none;stroke:#fff;stroke-miterlimit:10;}</style></defs><title>memoria</title><g id="Capa_2" data-name="Capa 2"><g id="Capa_1-2" data-name="Capa 1"><polygon class="cls-1" points="50.51 19.24 53.73 24.82 40.3 48.09 13.43 48.09 0 24.82 13.43 1.56 40.3 1.56 50.51 19.24"/><polygon class="cls-2" points="52.49 85.74 55.71 91.32 42.28 114.58 15.42 114.58 1.98 91.32 15.42 68.06 42.28 68.06 52.49 85.74"/><polygon class="cls-2" points="137.26 18.18 140.49 23.77 127.05 47.03 100.19 47.03 86.76 23.77 100.19 0.5 127.05 0.5 137.26 18.18"/><polygon class="cls-1" points="135.28 86.66 138.5 92.25 125.07 115.51 98.2 115.51 84.77 92.25 98.2 68.98 125.07 68.98 135.28 86.66"/><polygon class="cls-1" points="94.53 49.98 97.75 55.56 84.32 78.82 57.45 78.82 44.02 55.56 57.45 32.29 84.32 32.29 94.53 49.98"/></g></g></svg>