<svg xmlns="http://www.w3.org/2000/svg" viewBox="0 0 782.43 458.07"><defs><style>.cls-1{fill:#0a0045;}.cls-2,.cls-5{fill:none;stroke-miterlimit:10;}.cls-2{stroke:#c2c3c9;}.cls-3{fill:#c2c3c9;}.cls-4{fill:#4274e4;}.cls-5{stroke:#009bdb;}</style></defs><title>nuestro</title><g id="Capa_2" data-name="Capa 2"><g id="Capa_1-2" data-name="Capa 1"><path class="cls-1" d="M148.1,212.19V.12h49.77V81.56h34.51V.12h49.77V212.19H232.38V124h-34.5v88.22Z"/><path class="cls-1" d="M306.73,212.19V.12h114V42.53H356.54v39h62.21v42.41H356.54v45.81h67.58v42.41Z"/><path class="cls-1" d="M513.38,69.4h.57L539.4.12h49.77L538,123.12v89.07H488.22V123.12l-50-123h50.33Z"/><polygon class="cls-2" points="148.13 6.05 148.13 212.19 197.94 212.19 197.94 123.52 232.5 123.52 232.5 212.19 282.41 212.19 282.41 0.5 232.5 0.5 232.5 81.54 197.84 81.54 197.84 0.5 148.13 0.5 148.13 6.05"/><circle class="cls-3" cx="197.84" cy="81.54" r="3.17"/><circle class="cls-3" cx="232.5" cy="81.54" r="3.17"/><circle class="cls-3" cx="148.23" cy="212.19" r="3.17"/><circle class="cls-3" cx="197.94" cy="212.19" r="3.17"/><circle class="cls-3" cx="232.6" cy="212.19" r="3.17"/><circle class="cls-4" cx="282.31" cy="212.19" r="3.17"/><circle class="cls-3" cx="197.84" cy="124.02" r="3.17"/><circle class="cls-3" cx="232.5" cy="124.02" r="3.17"/><polyline class="cls-2" points="240.23 19.44 240.23 8.45 274.69 8.45 274.69 103.22 215.27 103.22"/><circle class="cls-2" cx="212.1" cy="103.22" r="3.17"/><polyline class="cls-2" points="189.72 58.96 189.72 8.45 156.45 8.45 156.45 201.86 174.87 201.86"/><circle class="cls-2" cx="177.61" cy="201.86" r="3.17"/><circle class="cls-4" cx="197.84" cy="41.43" r="3.17"/><circle class="cls-2" cx="189.72" cy="61.68" r="3.17"/><circle class="cls-3" cx="274.69" cy="103.22" r="3.17"/><polyline class="cls-2" points="257.46 113.62 257.46 161.55 252.7 161.55 252.7 131.84 244.98 131.84 244.98 169.47 257.46 169.47 257.46 182.15 244.98 182.55 244.98 193.24 265.78 192.85 265.78 113.62 274.69 113.62 274.69 201.86 240.23 201.86 240.23 113.62 186.68 113.62 186.55 188.88 164.77 188.88 164.77 19.44 174.43 19.44 174.43 171.06"/><circle class="cls-2" cx="174.43" cy="173.83" r="3.17"/><circle class="cls-3" cx="257.86" cy="110.65" r="3.17"/><circle class="cls-3" cx="274.69" cy="140.95" r="3.17"/><circle class="cls-3" cx="274.69" cy="173.83" r="3.17"/><circle class="cls-3" cx="164.77" cy="68.03" r="3.17"/><circle class="cls-3" cx="174.43" cy="91.83" r="3.17"/><polyline class="cls-5" points="174.43 91.84 264.19 91.84 264.19 19.44 249.14 19.44 249.14 68.03"/><circle class="cls-2" cx="249.53" cy="71.2" r="3.17"/><polyline class="cls-2" points="418.64 100.05 418.48 81.54 356.69 81.54 356.69 41.43 420.86 41.43 420.86 0.5 306.77 0.5 306.77 212.19 424.36 212.19"/><path class="cls-2" d="M418.48,97.78"/><polyline class="cls-2" points="424.36 170.66 356.69 170.66 356.69 124.02 418.48 124.02 418.64 106.4"/><circle class="cls-4" cx="308.2" cy="212.19" r="3.17"/><circle class="cls-4" cx="421.81" cy="212.19" r="3.17"/><circle class="cls-3" cx="356.69" cy="170.66" r="3.17"/><circle class="cls-3" cx="421.81" cy="170.66" r="3.17"/><circle class="cls-3" cx="416.03" cy="124.02" r="3.17"/><circle class="cls-3" cx="356.69" cy="124.02" r="3.17"/><circle class="cls-3" cx="356.69" cy="81.54" r="3.17"/><circle class="cls-3" cx="418.48" cy="81.54" r="3.17"/><circle class="cls-3" cx="356.69" cy="41.43" r="3.17"/><circle class="cls-3" cx="419.2" cy="41.43" r="3.17"/><circle class="cls-2" cx="418.64" cy="103.22" r="3.17"/><polyline class="cls-2" points="369.76 22.62 405.27 22.62 405.27 8.45 321.03 8.45 321.03 201.86 410.16 201.86 410.16 183.73 344.88 183.14 344.88 113.82 401.84 113.82 402.44 91.84 387.58 91.84 387.58 103.22 375.7 103.22 375.7 91.84 341.83 91.84 341.83 64.86"/><circle class="cls-2" cx="341.71" cy="62.06" r="3.17"/><circle class="cls-3" cx="321.04" cy="103.22" r="3.17"/><polyline class="cls-2" points="341.71 47.87 341.71 19.44 330.74 19.44 330.74 193.24 390.52 193.24"/><circle class="cls-2" cx="341.71" cy="50.26" r="3.17"/><circle class="cls-3" cx="341.83" cy="91.83" r="3.17"/><circle class="cls-3" cx="330.74" cy="170.66" r="3.17"/><circle class="cls-2" cx="392.9" cy="193.24" r="3.17"/><circle class="cls-3" cx="321.04" cy="201.86" r="3.17"/><circle class="cls-3" cx="381.83" cy="103.22" r="3.17"/><line class="cls-5" x1="330.74" y1="103.22" x2="359.86" y2="103.22"/><circle class="cls-2" cx="363.1" cy="103.22" r="3.17"/><circle class="cls-3" cx="321.04" cy="47.09" r="3.17"/><circle class="cls-3" cx="385.01" cy="41.43" r="3.17"/><polygon class="cls-2" points="488 0.5 437.69 0.5 488 124.02 488 212.19 537.91 212.19 537.91 124.02 589.01 0.5 538.7 0.5 513.35 70.05 488 0.5"/><polygon class="cls-2" points="478.49 8.45 451.56 8.45 499.88 124.02 499.88 172.25 517.31 172.25 517.31 178.98 499.09 178.98 499.09 201.86 531.18 201.86 531.18 124.02 579.11 8.45 569.2 8.45 544.25 71.24 533.95 71.24 558.91 8.45 544.65 8.45 513.35 91.84 478.49 8.45"/><polyline class="cls-2" points="549.4 16.18 513.35 106.4 473.34 16.18 461.46 16.18 477.3 53.44"/><polyline class="cls-2" points="484.04 69.26 507.81 124.02 507.81 163.14 522.86 163.14 522.86 186.9 503.45 186.9 503.45 196.41 510.58 196.41"/><polyline class="cls-5" points="517.71 149.67 517.71 124.02 534.35 84.71"/><circle class="cls-2" cx="513.35" cy="194.43" r="3.17"/><circle class="cls-3" cx="513.35" cy="106.4" r="3.17"/><circle class="cls-3" cx="513.35" cy="91.83" r="3.17"/><circle class="cls-4" cx="488" cy="212.19" r="3.17"/><circle class="cls-3" cx="538.31" cy="212.19" r="3.17"/><circle class="cls-2" cx="482.85" cy="66.08" r="3.17"/><circle class="cls-2" cx="478.1" cy="55.84" r="3.17"/><circle class="cls-3" cx="488" cy="30.83" r="3.17"/><circle class="cls-3" cx="503.45" cy="69.26" r="3.17"/><circle class="cls-5" cx="535.53" cy="81.54" r="3.17"/><circle class="cls-5" cx="517.71" cy="152.84" r="3.17"/><circle class="cls-3" cx="500.27" cy="170.66" r="3.17"/><circle class="cls-3" cx="549.4" cy="55.84" r="3.17"/><line class="cls-5" x1="197.84" y1="41.43" x2="232.16" y2="41.43"/><line class="cls-5" x1="282.41" y1="212.19" x2="309.01" y2="212.19"/><line class="cls-5" x1="282.41" y1="103.22" x2="306.77" y2="103.22"/><line class="cls-5" x1="356.46" y1="144.13" x2="488" y2="144.13"/><line class="cls-5" x1="420.84" y1="212.19" x2="488" y2="212.19"/><line class="cls-5" x1="356.46" y1="61.68" x2="461.46" y2="61.68"/><line class="cls-5" x1="499.06" y1="30.83" x2="529.32" y2="30.83"/><path class="cls-1" d="M3,458.07V254.16H83.57L119.48,381.4l35.9-127.24H236V458H176V395.8l.85-31.67,3.39-36.73h-.57L142.7,458H96.29l-37-130.64h-.57l2.83,30,1.41,31.67v69Z"/><path class="cls-1" d="M256,458l73-203.59h67.86l73,203.59H403.38l-7.92-26.86H329L321.38,458ZM362.38,315.78l-20.64,73h42.13Z"/><path class="cls-1" d="M550.12,458H475.19L547.3,352.26l-65-97.84h74.93l28.84,52,29.13-52.21h74.93l-68.75,98L690.66,458H615.73l-32.8-57.12Z"/><rect class="cls-4" x="0.38" y="435.56" width="8.71" height="22.51"/><rect class="cls-4" x="14.25" y="435.56" width="8.71" height="22.51"/><rect class="cls-4" x="27.52" y="435.56" width="8.71" height="22.51"/><rect class="cls-4" x="41.38" y="435.56" width="8.71" height="22.51"/><rect class="cls-4" x="55.82" y="435.56" width="8.71" height="22.51"/><rect class="cls-4" y="254.16" width="8.71" height="22.18"/><rect class="cls-4" x="13.86" y="254.16" width="8.71" height="22.18"/><rect class="cls-4" x="27.13" y="254.16" width="8.71" height="22.18"/><rect class="cls-4" x="41" y="254.16" width="8.71" height="22.18"/><rect class="cls-4" x="54.24" y="254.16" width="8.71" height="22.18"/><rect class="cls-4" x="66.98" y="254.16" width="8.71" height="22.18"/><rect class="cls-4" x="79.67" y="254.16" width="8.71" height="22.18"/><line class="cls-5" x1="3.27" y1="414.71" x2="35.85" y2="414.71"/><polyline class="cls-5" points="3.27 425.71 3.27 406.49 31.49 406.49 31.49 374.54 18.76 360.88 18.76 349.22 12.18 349.22 12.18 366.9 25.04 380.68 25.04 399.45 3.27 399.45 3.27 392.48 13.86 392.48 14.25 380.68 3.27 380.68 3.27 342.27 20.99 342.27 24.94 347.81 24.94 358.91 35.85 370.79 49.71 370.79 49.71 364.06 36.23 364.06 30.09 355.95 30.09 347.02 22.96 337.12 3.27 337.12 3.27 329.2 22.96 329.2 35.85 345.83 35.85 353.76 49.71 353.76 49.71 321.67 31.49 321.67 31.49 310.58 38.71 310.58 38.71 304.24 31.49 304.24 31.49 276.35"/><circle class="cls-2" cx="118.89" cy="383.86" r="3.17"/><polyline class="cls-2" points="60.17 435.56 60.17 423.87 52.16 415.86 52.16 406.84 56.17 406.84 56.17 413.17 60.17 413.17 60.17 398.12 45.35 398.12 45.35 383.86 60.17 383.86 60.17 343.46"/><polyline class="cls-5" points="3.27 425.71 31.88 425.71 31.49 435.56"/><polyline class="cls-2" points="45.35 435.56 45.35 430.63 54.24 430.63 54.24 425.71 45.74 418.74 45.74 407.09 38.71 407.09 38.71 374.94 54.24 374.94 54.24 314.66 45.35 314.66 45.35 275.32"/><circle class="cls-3" cx="4.36" cy="425.71" r="3.17"/><line class="cls-5" x1="18.22" y1="435.56" x2="18.22" y2="414.71"/><line class="cls-2" x1="3.27" y1="435.56" x2="3.27" y2="425.71"/><polyline class="cls-5" points="17.57 275.32 17.57 288.59 24.55 288.59 24.55 322.07 3.27 322.07"/><polyline class="cls-5" points="3.27 276.35 3.27 294.34 10.29 294.34 10.29 304.64 13.91 304.64 13.86 294.34 18.22 294.34 18.22 312.16 3.27 312.16"/><circle class="cls-3" cx="60.17" cy="340.28" r="3.17"/><polyline class="cls-2" points="58.6 275.32 58.6 282.16 51.28 282.16 51.28 307.41 61.68 307.41 61.68 322.07"/><circle class="cls-3" cx="61.68" cy="325.24" r="3.17"/><polyline class="cls-2" points="61.68 325.24 70.3 325.24 70.3 347.22 64.86 347.22 68.52 359.7 73.27 359.7 73.27 374.26"/><polyline class="cls-2" points="71.34 276.35 71.34 282.75 64.53 282.75 64.53 288.59 54.24 288.59 54.24 302.36 64.53 302.36 64.86 294.26 71.34 294.26 71.34 316.32 77.73 316.32 77.73 323.75 73.27 323.75 73.27 351.03 69.81 351.03 71.34 355.95 77.73 355.95 77.73 392.48"/><polyline class="cls-2" points="64.53 288.59 79.67 288.59 79.67 308.6 84.03 308.6 84.03 328.41 77.73 328.41 77.73 351.03 84.03 351.03 84.03 363.86 92.28 363.86 92.28 392.48 84.03 392.48 84.03 372.18 88.38 372.18 88.38 380.68"/><polyline class="cls-2" points="84.03 275.32 84.03 288.59 89.61 288.59 89.61 298.7 84.03 298.7 84.03 304.74 96.64 304.74"/><line class="cls-2" x1="84.03" y1="314.84" x2="99.71" y2="314.84"/><line class="cls-2" x1="84.03" y1="322.07" x2="102.38" y2="322.07"/><line class="cls-2" x1="84.03" y1="328.41" x2="104.17" y2="328.41"/><polyline class="cls-2" points="90.33 328.41 90.33 334.41 81.88 334.41 81.88 340.28 90.33 340.28 90.33 355.95"/><polyline class="cls-2" points="81.88 337.11 96.64 337.11 96.64 398.02 78.41 398.02"/><polyline class="cls-5" points="118.89 387.03 118.89 394.46 118.89 456.55"/><polyline class="cls-2" points="118.89 392.48 111 392.48 111 376.34 116.94 376.34 113.67 364.75 105.36 364.75 105.36 358.51 112.12 358.51 108.03 343.46 102.38 343.46 102.38 334.41 105.36 334.41"/><polyline class="cls-2" points="104.17 347.81 106.54 355.44 101.2 355.44 101.2 370.39 106.54 370.39 106.54 399.81 113.38 399.81 113.38 406.04 101.2 406.04 101.2 381.98"/><polyline class="cls-5" points="118.89 412.58 96.64 412.58 96.64 403.97 80.7 403.97 81.88 409.61 91.87 409.61 91.87 416.15 84.03 416.15 90.33 437.24"/><polyline class="cls-5" points="117.83 420.6 90.33 420.6 95.55 437.24 101.2 437.24 101.2 425.71 113.38 425.71 113.38 456.55"/><polyline class="cls-5" points="113.38 430.63 105.95 430.63 105.95 441.7 91.87 441.7"/><polyline class="cls-5" points="93.21 446.65 108.62 446.65 108.62 456.62"/><line class="cls-5" x1="94.1" y1="452.69" x2="102.62" y2="452.69"/><rect class="cls-4" x="229.61" y="435.56" width="8.71" height="22.45"/><rect class="cls-4" x="215.74" y="435.56" width="8.71" height="22.45"/><rect class="cls-4" x="202.47" y="435.56" width="8.71" height="22.45"/><rect class="cls-4" x="188.61" y="435.56" width="8.71" height="22.45"/><rect class="cls-4" x="174.17" y="435.56" width="8.71" height="22.45"/><rect class="cls-4" x="229.99" y="254.16" width="8.71" height="22.18"/><rect class="cls-4" x="216.13" y="254.16" width="8.71" height="22.18"/><rect class="cls-4" x="202.86" y="254.16" width="8.71" height="22.18"/><rect class="cls-4" x="188.99" y="254.16" width="8.71" height="22.18"/><rect class="cls-4" x="175.75" y="254.16" width="8.71" height="22.18"/><rect class="cls-4" x="163.01" y="254.16" width="8.71" height="22.18"/><rect class="cls-4" x="150.32" y="254.16" width="8.71" height="22.18"/><line class="cls-5" x1="235.44" y1="414.71" x2="200" y2="414.71"/><line class="cls-5" x1="207.22" y1="290.38" x2="207.22" y2="276.35"/><polyline class="cls-5" points="235.44 425.71 235.44 406.49 207.22 406.49 207.22 374.54 219.95 360.88 219.95 349.22 226.52 349.22 226.52 366.9 213.66 380.68 213.66 399.45 235.44 399.45 235.44 392.48 224.84 392.48 224.46 380.68 235.44 380.68 235.44 342.27 217.72 342.27 213.76 347.81 213.76 358.91 202.86 370.79 188.99 370.79 188.99 364.06 202.47 364.06 208.61 355.95 208.61 347.02 215.74 337.12 235.44 337.12 235.44 329.2 215.74 329.2 202.86 345.83 202.86 353.76 188.99 353.76 188.99 321.67 207.22 321.67 207.22 310.58 200 310.58 200 304.24 207.22 304.24 207.22 298.3"/><polyline class="cls-2" points="178.53 435.56 178.53 423.87 186.54 415.86 186.54 406.84 182.54 406.84 182.54 413.17 178.53 413.17 178.53 398.12 193.35 398.12 193.35 383.86 178.53 383.86 178.53 343.46"/><polyline class="cls-5" points="235.44 425.71 206.83 425.71 207.22 435.56"/><polyline class="cls-5" points="193.35 435.56 193.35 430.63 184.46 430.63 184.46 425.71 192.97 418.74 192.97 407.09 200 407.09 200 374.94 184.46 374.94 184.46 314.66 193.35 314.66 193.35 275.32"/><line class="cls-5" x1="220.49" y1="435.56" x2="220.49" y2="414.71"/><line class="cls-5" x1="235.44" y1="435.56" x2="235.44" y2="428.25"/><polyline class="cls-5" points="221.13 275.32 221.13 288.59 214.16 288.59 214.16 322.07 231.18 322.07"/><polyline class="cls-5" points="235.44 276.35 235.44 294.34 228.42 294.34 228.42 304.64 224.8 304.64 224.84 294.34 220.49 294.34 220.49 312.16 231.18 312.16"/><circle class="cls-3" cx="178.53" cy="340.28" r="3.17"/><polyline class="cls-2" points="180.11 275.32 180.11 282.16 187.42 282.16 187.42 307.41 177.02 307.41 177.02 322.07"/><circle class="cls-3" cx="177.02" cy="325.24" r="3.17"/><polyline class="cls-2" points="177.02 325.24 168.41 325.24 168.41 347.22 173.85 347.22 170.19 359.7 165.44 359.7 165.44 374.26"/><polyline class="cls-2" points="167.37 276.35 167.37 282.75 174.17 282.75 174.17 288.59 184.46 288.59 184.46 302.36 174.17 302.36 173.85 294.26 167.37 294.26 167.37 316.32 160.98 316.32 160.98 323.75 165.44 323.75 165.44 351.03 168.9 351.03 167.37 355.95 160.98 355.95 160.98 392.48"/><polyline class="cls-2" points="174.17 288.59 159.03 288.59 159.03 308.6 154.68 308.6 154.68 328.41 160.98 328.41 160.98 351.03 154.68 351.03 154.68 363.86 146.42 363.86 146.42 392.48 154.68 392.48 154.68 372.18 150.32 372.18 150.32 380.68"/><polyline class="cls-2" points="154.68 275.32 154.68 288.59 149.1 288.59 149.1 298.7 154.68 298.7 154.68 304.74 142.06 304.74"/><line class="cls-2" x1="154.68" y1="314.84" x2="138.99" y2="314.84"/><line class="cls-2" x1="154.68" y1="322.07" x2="136.32" y2="322.07"/><line class="cls-2" x1="154.68" y1="328.41" x2="134.54" y2="328.41"/><polyline class="cls-2" points="148.37 328.41 148.37 334.41 156.82 334.41 156.82 340.28 148.37 340.28 148.37 355.95"/><polyline class="cls-2" points="156.82 337.11 142.06 337.11 142.06 398.02 160.3 398.02"/><polyline class="cls-2" points="119.82 392.48 127.71 392.48 127.71 376.34 121.76 376.34 125.03 364.75 133.35 364.75 133.35 358.51 126.58 358.51 130.68 343.46 136.32 343.46 136.32 334.41 133.35 334.41"/><polyline class="cls-2" points="134.54 347.81 132.16 355.44 137.51 355.44 137.51 370.39 132.16 370.39 132.16 399.81 125.33 399.81 125.33 406.04 137.51 406.04 137.51 381.98"/><polyline class="cls-5" points="119.82 412.58 142.06 412.58 142.06 403.97 158.01 403.97 156.82 409.61 146.84 409.61 146.84 416.15 154.68 416.15 148.37 437.24"/><polyline class="cls-5" points="120.87 420.6 148.37 420.6 143.15 437.24 137.51 437.24 137.51 425.71 125.33 425.71 125.33 456.55"/><polyline class="cls-5" points="125.33 430.63 132.76 430.63 132.76 441.7 146.84 441.7"/><polyline class="cls-5" points="145.5 446.65 130.08 446.65 130.08 456.62"/><line class="cls-5" x1="144.61" y1="452.69" x2="136.08" y2="452.69"/><circle class="cls-3" cx="3.27" cy="312.16" r="3.17"/><circle class="cls-3" cx="3.27" cy="322.07" r="3.17"/><circle class="cls-3" cx="96.64" cy="304.74" r="3.17"/><circle class="cls-3" cx="98.36" cy="314.84" r="3.17"/><circle class="cls-2" cx="39.89" cy="414.71" r="3.17"/><circle class="cls-3" cx="102.62" cy="328.41" r="3.17"/><circle class="cls-3" cx="90.33" cy="355.95" r="3.17"/><circle class="cls-2" cx="100.91" cy="379.5" r="3.17"/><circle class="cls-3" cx="88.39" cy="380.68" r="3.17"/><circle class="cls-3" cx="137.51" cy="380.68" r="3.17"/><circle class="cls-3" cx="118.89" cy="420.6" r="3.17"/><circle class="cls-3" cx="102.62" cy="452.69" r="3.17"/><circle class="cls-3" cx="136.08" cy="452.69" r="3.17"/><circle class="cls-3" cx="148.37" cy="355.95" r="3.17"/><circle class="cls-3" cx="136.08" cy="328.41" r="3.17"/><circle class="cls-3" cx="140.68" cy="314.84" r="3.17"/><circle class="cls-3" cx="143.86" cy="304.74" r="3.17"/><circle class="cls-3" cx="31.88" cy="290.03" r="3.17"/><circle class="cls-3" cx="200" cy="414.71" r="3.17"/><circle class="cls-2" cx="234.35" cy="312.16" r="3.17"/><circle class="cls-2" cx="234.35" cy="322.07" r="3.17"/><circle class="cls-2" cx="206.83" cy="293.2" r="3.17"/><rect class="cls-4" x="298.34" y="435.04" width="8.71" height="22.97"/><rect class="cls-4" x="311.07" y="435.04" width="8.71" height="22.97"/><rect class="cls-3" x="284.94" y="435.04" width="8.71" height="22.97"/><circle class="cls-2" cx="362.98" cy="313.27" r="3.17"/><polyline class="cls-5" points="302.69 436.07 302.69 429.23 295.38 429.23 295.38 403.98 305.78 403.98 305.78 389.32"/><circle class="cls-3" cx="305.78" cy="386.15" r="3.17"/><polyline class="cls-2" points="305.78 386.15 314.39 386.15 314.39 364.17 308.95 364.17 312.61 351.69 317.36 351.69 317.36 337.14"/><polyline class="cls-5" points="315.43 435.04 315.43 428.64 308.62 428.64 308.62 422.8 298.34 422.8 298.34 409.03 308.62 409.03 308.95 417.14 315.43 417.14 315.43 395.07 321.82 395.07 321.82 387.64 317.36 387.64 317.36 360.36 313.9 360.36 315.43 355.44 321.82 355.44 321.82 318.91"/><polyline class="cls-2" points="308.62 422.8 323.76 422.8 323.76 402.79 328.12 402.79 328.12 382.98 321.82 382.98 321.82 360.36 328.12 360.36 328.12 347.53 336.38 347.53 336.38 318.91 328.12 318.91 328.12 339.22 332.48 339.22 332.48 330.71"/><polyline class="cls-2" points="328.12 436.07 328.12 422.8 333.7 422.8 333.7 412.69 328.12 412.69 328.12 406.65 340.73 406.65"/><line class="cls-2" x1="328.12" y1="396.55" x2="343.8" y2="396.55"/><polyline class="cls-2" points="334.43 382.98 334.43 376.98 325.98 376.98 325.98 371.11 334.43 371.11 334.43 355.44"/><polyline class="cls-5" points="325.98 374.28 340.73 374.28 340.73 313.37 308.62 313.27"/><polyline class="cls-5" points="362.98 310.1 362.98 301.81 362.98 254.84"/><polyline class="cls-2" points="345.29 329.41 345.29 305.35 357.47 305.35 357.47 311.59 350.64 311.59 350.64 341 345.29 341 345.29 355.95 350.64 355.95 348.26 363.58 342.45 382.98 328.12 382.98"/><polyline class="cls-2" points="362.98 298.81 340.73 298.81 340.73 307.43 324.79 307.43 325.98 301.78 335.96 301.78 335.96 295.25 328.12 295.25 332.48 280.67 319.86 280.67"/><polyline class="cls-5" points="361.93 290.79 334.43 290.79 339.64 274.15 345.29 274.15 345.29 285.68 357.47 285.68 357.47 254.84"/><polyline class="cls-5" points="357.47 280.76 350.04 280.76 350.04 269.7 335.96 269.7"/><polyline class="cls-5" points="337.3 264.74 352.72 264.74 352.72 254.77"/><polyline class="cls-5" points="346.72 258.7 330.2 258.7 330.2 268.39"/><rect class="cls-4" x="419.84" y="434.96" width="8.71" height="23.05"/><rect class="cls-4" x="407.1" y="434.96" width="8.71" height="23.05"/><rect class="cls-3" x="432.7" y="434.96" width="8.71" height="23.05"/><circle class="cls-3" cx="422.62" cy="371.11" r="3.17"/><polyline class="cls-5" points="424.2 436.07 424.2 429.23 431.51 429.23 431.51 403.98 421.12 403.98 421.12 389.32"/><circle class="cls-3" cx="421.12" cy="386.15" r="3.17"/><polyline class="cls-2" points="421.12 386.15 412.5 386.15 412.5 364.17 417.94 364.17 414.28 351.69 409.53 351.69 409.53 337.14"/><polyline class="cls-5" points="411.46 435.04 411.46 428.64 418.27 428.64 418.27 422.8 428.56 422.8 428.56 409.03 418.27 409.03 417.94 417.14 411.46 417.14 411.46 395.07 405.07 395.07 405.07 387.64 409.53 387.64 409.53 360.36 412.99 360.36 411.46 355.44 405.07 355.44 405.07 318.91"/><polyline class="cls-2" points="418.27 422.8 403.13 422.8 403.13 402.79 398.77 402.79 398.77 382.98 405.07 382.98 405.07 360.36 398.77 360.36 398.77 347.53 390.51 347.53 390.51 318.91 398.77 318.91 398.77 339.22 394.41 339.22 394.41 330.71"/><polyline class="cls-2" points="397.58 438.49 397.58 424.14 392 424.14 392 413.19 397.58 413.19 397.58 406.65 384.97 406.65"/><line class="cls-2" x1="398.77" y1="396.55" x2="383.09" y2="396.55"/><polyline class="cls-2" points="398.77 389.32 380.41 389.32 346.48 389.32 328.12 389.32"/><polyline class="cls-2" points="392.46 382.98 392.46 376.98 400.91 376.98 400.91 371.11 392.46 371.11 392.46 355.44"/><polyline class="cls-5" points="400.91 374.28 386.16 374.28 386.16 313.37 416.81 313.37"/><polyline class="cls-2" points="381.6 329.41 381.6 305.35 369.42 305.35 369.42 311.59 376.26 311.59 376.26 341 381.6 341 381.6 355.95 376.26 355.95 383.01 382.98 398.77 382.98"/><polyline class="cls-2" points="363.91 298.81 386.16 298.81 386.16 307.43 402.1 307.43 400.91 301.78 390.93 301.78 390.93 295.25 398.77 295.25 394.41 280.67 406.21 280.67"/><polyline class="cls-5" points="364.97 290.79 392.46 290.79 387.25 274.15 381.6 274.15 381.6 285.68 369.42 285.68 369.42 254.84"/><polyline class="cls-5" points="369.42 280.76 376.85 280.76 376.85 269.7 390.93 269.7"/><polyline class="cls-5" points="389.59 264.74 374.18 264.74 374.18 254.77"/><polyline class="cls-5" points="380.18 258.7 395.27 258.7 395.27 268.39"/><circle class="cls-3" cx="340.73" cy="406.65" r="3.17"/><circle class="cls-3" cx="342.45" cy="396.55" r="3.17"/><circle class="cls-3" cx="334.43" cy="355.44" r="3.17"/><circle class="cls-2" cx="345.01" cy="331.9" r="3.17"/><circle class="cls-3" cx="332.48" cy="330.71" r="3.17"/><circle class="cls-3" cx="381.6" cy="330.71" r="3.17"/><circle class="cls-3" cx="362.98" cy="290.79" r="3.17"/><circle class="cls-3" cx="346.72" cy="258.7" r="3.17"/><circle class="cls-3" cx="380.18" cy="258.7" r="3.17"/><circle class="cls-3" cx="392.46" cy="355.44" r="3.17"/><circle class="cls-3" cx="384.78" cy="396.55" r="3.17"/><circle class="cls-3" cx="387.95" cy="406.65" r="3.17"/><rect class="cls-3" x="272.27" y="435.04" width="8.71" height="22.97"/><rect class="cls-3" x="444.98" y="434.96" width="8.71" height="23.05"/><circle class="cls-2" cx="355.89" cy="396.55" r="3.17"/><circle class="cls-2" cx="352.72" cy="407.14" r="3.17"/><circle class="cls-2" cx="369.42" cy="396.55" r="3.17"/><circle class="cls-2" cx="372.6" cy="407.14" r="3.17"/><polyline class="cls-2" points="351.04 409.83 344.45 422.8 381.6 422.8 374.97 409.23"/><line class="cls-2" x1="366.25" y1="396.55" x2="359.06" y2="396.55"/><line class="cls-2" x1="362.66" y1="396.55" x2="362.66" y2="429.37"/><line class="cls-2" x1="347.89" y1="416.02" x2="378.28" y2="416.02"/><line class="cls-2" x1="389.37" y1="429.37" x2="337.56" y2="429.37"/><circle class="cls-3" cx="330.2" cy="271.57" r="3.17"/><circle class="cls-3" cx="395.64" cy="270.98" r="3.17"/><circle class="cls-2" cx="583.22" cy="383.9" r="3.17"/><rect class="cls-4" x="640.08" y="254.21" width="8.71" height="22.18"/><rect class="cls-4" x="627.34" y="254.21" width="8.71" height="22.18"/><rect class="cls-4" x="614.65" y="254.21" width="8.71" height="22.18"/><polyline class="cls-5" points="644.44 275.37 644.44 282.2 651.75 282.2 651.75 307.46 641.36 307.46 641.36 322.11"/><circle class="cls-3" cx="641.36" cy="320.53" r="3.17"/><line class="cls-5" x1="625.31" y1="357.92" x2="625.31" y2="392.52"/><polyline class="cls-5" points="631.7 276.39 631.7 282.8 638.51 282.8 638.51 288.63 648.8 288.63 648.8 302.41 638.51 302.41 638.18 294.3 631.7 294.3 631.7 316.37 625.31 316.37 625.31 323.8 629.77 323.8 629.77 340"/><polyline class="cls-5" points="621.37 351.07 619.01 351.07 619.01 363.9 610.76 363.9 610.76 392.52 619.01 392.52 619.01 372.22 614.65 372.22 614.65 380.73"/><polyline class="cls-5" points="638.51 288.63 623.37 288.63 623.37 308.65 619.01 308.65 619.01 328.46 625.31 328.46 625.31 346.22"/><polyline class="cls-5" points="619.01 275.37 619.01 288.63 613.43 288.63 613.43 298.74 619.01 298.74 619.01 304.78 606.4 304.78"/><line class="cls-5" x1="619.01" y1="314.88" x2="603.33" y2="314.88"/><line class="cls-5" x1="619.01" y1="322.11" x2="600.65" y2="322.11"/><line class="cls-5" x1="619.01" y1="328.46" x2="598.87" y2="328.46"/><polyline class="cls-5" points="612.7 328.46 612.7 334.46 621.15 334.46 621.15 340.33 612.7 340.33 612.7 356"/><polyline class="cls-5" points="621.15 337.16 606.4 337.16 606.4 398.07 640.08 398.07 640.08 435.22"/><polyline class="cls-5" points="598.87 347.86 596.5 355.49 601.84 355.49 601.84 370.44 596.5 370.44 596.5 399.85 589.66 399.85 589.66 406.09 601.84 406.09 601.84 382.03"/><polyline class="cls-5" points="589.02 412.63 606.4 412.63 606.4 404.01 622.34 404.01 621.15 409.66 611.17 409.66 611.17 416.19 619.01 416.19 612.7 437.28"/><path class="cls-2" d="M589.66,458"/><polyline class="cls-5" points="593.18 420.65 612.7 420.65 607.49 437.28 601.84 437.28 601.84 425.75 596.15 425.75"/><circle class="cls-3" cx="601.84" cy="380.73" r="3.17"/><circle class="cls-3" cx="612.7" cy="356" r="3.17"/><circle class="cls-3" cx="600.42" cy="328.46" r="3.17"/><circle class="cls-3" cx="605.02" cy="314.88" r="3.17"/><circle class="cls-3" cx="608.19" cy="304.78" r="3.17"/><rect class="cls-4" x="514.96" y="434.2" width="8.71" height="23.81"/><rect class="cls-4" x="527.7" y="434.2" width="8.71" height="23.81"/><rect class="cls-4" x="540.39" y="434.2" width="8.71" height="23.81"/><polyline class="cls-5" points="519.32 435.22 519.32 428.39 512 428.39 512 403.14 522.4 403.14 522.4 388.48"/><polyline class="cls-5" points="522.4 385.31 531.02 385.31 531.02 375.44"/><polyline class="cls-5" points="538.45 338.9 538.45 318.07 525.58 318.07"/><polyline class="cls-5" points="532.06 434.2 532.06 427.8 525.25 427.8 525.25 421.96 514.96 421.96 514.96 408.19 525.25 408.19 525.58 416.29 532.06 416.29 532.06 394.23 538.45 394.23 538.45 386.8 533.99 386.8 533.99 372.18"/><polyline class="cls-5" points="544.75 348.11 544.75 346.69 553 346.69 553 318.07 544.75 318.07 544.75 338.37 549.1 338.37 549.1 329.86"/><polyline class="cls-5" points="542.67 359.52 544.75 359.52 544.75 355.84"/><polyline class="cls-5" points="525.25 421.96 540.39 421.96 540.39 401.95 544.75 401.95 544.75 382.13 538.45 382.13 538.45 365.05"/><polyline class="cls-5" points="544.75 435.22 544.75 421.96 550.33 421.96 550.33 411.85 544.75 411.85 544.75 405.81 557.36 405.81"/><line class="cls-5" x1="544.75" y1="395.71" x2="560.43" y2="395.71"/><line class="cls-5" x1="544.75" y1="388.48" x2="563.1" y2="388.48"/><line class="cls-5" x1="544.75" y1="382.13" x2="564.89" y2="382.13"/><polyline class="cls-5" points="551.05 382.13 551.05 376.14 542.6 376.14 542.6 370.27 551.05 370.27 551.05 354.6"/><polyline class="cls-5" points="542.6 373.44 557.36 373.44 557.36 312.53 539.13 312.53"/><polyline class="cls-5" points="583.22 380.73 583.22 330.71 575.95 330.71 575.95 326.69 586.39 326.69 586.39 318.07 579.61 318.07 571.72 318.07 571.72 334.21 577.66 334.21 574.39 345.8 566.07 345.8 566.07 352.04 572.84 352.04 568.75 367.09 563.1 367.09 563.1 376.14 570.6 376.14 570.6 421.96"/><polyline class="cls-5" points="564.89 362.73 567.26 355.11 561.92 355.11 561.92 340.15 567.26 340.15 567.26 310.74 574.1 310.74 574.1 304.5 561.92 304.5 561.92 328.57"/><polyline class="cls-5" points="579.61 297.97 557.36 297.97 557.36 306.58 541.42 306.58 542.6 300.94 552.59 300.94 552.59 294.4 544.75 294.4 551.05 273.31 495.93 273.31"/><polyline class="cls-5" points="578.55 289.95 551.05 289.95 556.27 273.31 561.92 273.31 561.92 284.84 574.1 284.84"/><polyline class="cls-5" points="574.1 279.92 566.67 279.92 566.67 268.85 552.59 268.85"/><line class="cls-5" x1="490.38" y1="263.9" x2="562.58" y2="263.9"/><line class="cls-5" x1="485.23" y1="257.86" x2="558.46" y2="257.86"/><circle class="cls-3" cx="557.36" cy="405.81" r="3.17"/><circle class="cls-3" cx="559.08" cy="395.71" r="3.17"/><circle class="cls-3" cx="563.34" cy="382.13" r="3.17"/><circle class="cls-3" cx="551.05" cy="354.6" r="3.17"/><circle class="cls-3" cx="561.63" cy="331.05" r="3.17"/><circle class="cls-3" cx="549.1" cy="329.86" r="3.17"/><polyline class="cls-5" points="608.19 304.78 591.1 304.78 591.1 334.46 597.68 334.46 600.65 334.46 600.65 343.5 595.01 343.5 590.92 358.56 597.68 358.56 597.68 364.79 589.36 364.79 586.1 376.38 592.04 376.38 592.04 392.52 574.1 392.52 574.1 416.02"/><line class="cls-5" x1="583.22" y1="400.99" x2="583.22" y2="387.08"/><rect class="cls-4" x="636" y="434.2" width="8.71" height="23.81"/><rect class="cls-3" x="623.26" y="434.2" width="8.71" height="23.81"/><rect class="cls-3" x="648.86" y="434.2" width="8.71" height="23.81"/><rect class="cls-3" x="661.14" y="434.2" width="8.71" height="23.81"/><circle class="cls-3" cx="234.35" cy="425.71" r="3.17"/><circle class="cls-3" cx="524.06" cy="387.08" r="3.17"/><polygon class="cls-4" points="723.79 251.17 782.43 251.17 782.43 304.81 768.71 383.35 736.27 383.35 723.79 307.31 723.79 251.17"/><rect class="cls-4" x="723.79" y="402.12" width="54.27" height="55.89"/></g></g></svg>