<svg xmlns="http://www.w3.org/2000/svg" viewBox="0 0 151.59 158.15"><defs><style>.cls-1{fill:none;stroke:#fff;stroke-miterlimit:10;stroke-width:3px;}</style></defs><title>pregnancia</title><g id="Capa_2" data-name="Capa 2"><g id="Capa_1-2" data-name="Capa 1"><path class="cls-1" d="M39.07,119.55a38.53,38.53,0,0,1,1-77"/><path class="cls-1" d="M36.61,40C36.61,18.29,55.36.47,77.06,1.55a38.74,38.74,0,0,1,27.16,13.2c2.43,2.79,14.44,26.3,7.34,25.63a38.53,38.53,0,1,1,0,77.06c7.33.37-4.33,22.35-6.76,25.28A38.75,38.75,0,0,1,78,156.55c-22,1.63-41.41-16.31-41.41-38.42a16.6,16.6,0,0,1,3,1.26"/></g></g></svg>