<?xml version="1.0" encoding="utf-8"?>
<!-- Generator: Adobe Illustrator 21.0.0, SVG Export Plug-In . SVG Version: 6.00 Build 0)  -->
<svg version="1.1" id="Capa_1" xmlns="http://www.w3.org/2000/svg" xmlns:xlink="http://www.w3.org/1999/xlink" x="0px" y="0px"
	 viewBox="0 0 157.6 157.6" enable-background="new 0 0 157.6 157.6" xml:space="preserve">
<title>totalidad</title>
<g id="Capa_2">
	<g id="Capa_1-2">
		<path fill="#FFFFFF" d="M78.8,0c16.3,0,32.4,5.1,45.7,14.6c12.9,9.2,22.9,22.2,28.3,37.1c5.7,15.5,6.3,32.8,1.8,48.7
			c-4.4,15.3-13.4,29.1-25.7,39.2c-12.4,10.2-27.9,16.5-43.9,17.7c-16.4,1.3-33-2.6-47.1-11.2c-13.5-8.2-24.4-20.5-30.9-34.9
			c-6.8-15-8.7-32-5.4-48.2c3.2-15.7,11.2-30.3,22.8-41.3C36,10.8,50.8,3.4,66.6,0.9C70.6,0.3,74.7,0,78.8,0z"/>
	</g>
</g>
</svg>
